<svg xmlns="http://www.w3.org/2000/svg" viewBox="0 0 750 500"><g id="freepik--background-simple--inject-281"><path d="M152.76,128.57l-.14,1.71a38.89,38.89,0,0,0,17.48,36.24,37.58,37.58,0,0,0,4.88,2.63,40.86,40.86,0,0,0,38.42-3.28c6.61-4.37,12.28-10.83,20-12.5,10.05-2.17,19.56,4.47,27.62,10.74S278.6,177,288.63,174.78c6.29-1.39,11.43-6.14,15-11.56,9.35-14.36,8.73-33.75,1-48.82s-21.79-26.16-37.17-33.23c-21.54-9.92-47-12.55-69.43-4.32S156.82,105,152.76,128.57Z" style="fill:#f5f5f5"></path><circle cx="87.34" cy="195.39" r="20.91" transform="translate(-119.52 250.3) rotate(-80.78)" style="fill:#f5f5f5"></circle></g><g id="freepik--Floor--inject-281"><path d="M722.25,470.61c0,.15-154.58.26-345.23.26s-345.27-.11-345.27-.26,154.55-.26,345.27-.26S722.25,470.47,722.25,470.61Z" style="fill:#263238"></path></g><g id="freepik--Plant--inject-281"><path d="M401.83,431.3H383V271.91a9.4,9.4,0,0,1,9.4-9.4h0a9.4,9.4,0,0,1,9.4,9.4Z" style="fill:#455a64"></path><path d="M401.46,280.92c1.39.82,3.25,0,4.15-1.34A11.55,11.55,0,0,0,407,275a7.36,7.36,0,0,1,1.89-4.32c2.12-1.94,5.85-.91,7.43,1.48s1.46,5.56.63,8.31a19.11,19.11,0,0,1-8.28,10.7c-2.44,1.48-5.49,2.4-8.15,1.37" style="fill:#455a64"></path><path d="M385.23,322.11s-9.19-4.87-9.42-15.6c-.29-14.31,2.47-24.37-6.19-24.36-8.12,0-6.55,9.83-7,21.07s3.88,29.52,21.53,31C384.13,334.21,389.6,328.66,385.23,322.11Z" style="fill:#455a64"></path><path d="M400.83,371.37s10.06-4,12.13-14.14,1.51-29.77,1.88-32.41,1.51-7.37,8.48-6.79,7.92,8.11,7.54,14.33,2.5,50.83-30,52.58C400.83,384.94,395.68,379.09,400.83,371.37Z" style="fill:#455a64"></path><path d="M383,380.33c-.1,0-.18-18.39-.18-41.08s.08-41.08.18-41.08.19,18.39.19,41.08S383.13,380.33,383,380.33Z" style="fill:#263238"></path><path d="M401.83,388.17c-.1,0-.19-24.79-.19-55.36s.09-55.37.19-55.37.18,24.78.18,55.37S401.93,388.17,401.83,388.17Z" style="fill:#263238"></path><path d="M388.72,420.05c-.1,0-.18-34.95-.18-78.05s.08-78.06.18-78.06.18,34.94.18,78.06S388.82,420.05,388.72,420.05Z" style="fill:#263238"></path><path d="M395.52,420.05c-.1,0-.18-34.95-.18-78.05s.08-78.06.18-78.06.18,34.94.18,78.06S395.62,420.05,395.52,420.05Z" style="fill:#263238"></path><path d="M420.49,318.25s0,.06,0,.17,0,.3.05.49c0,.44.1,1.08.14,1.91.12,1.65.23,4.05.26,7a143.1,143.1,0,0,1-1.67,23.09,54.8,54.8,0,0,1-3.08,12.39,24.27,24.27,0,0,1-5.73,8.67,17.48,17.48,0,0,1-5.91,3.77,11,11,0,0,1-2.49.67l.16-.06.48-.13c.21-.05.47-.13.77-.23s.65-.22,1-.38a17.8,17.8,0,0,0,5.78-3.83,24.2,24.2,0,0,0,5.59-8.61,54.9,54.9,0,0,0,3-12.31,152.71,152.71,0,0,0,1.77-23c0-3-.07-5.36-.14-7,0-.81-.06-1.44-.08-1.91v-.5C420.48,318.31,420.48,318.25,420.49,318.25Z" style="fill:#263238"></path><path d="M425.42,318.47s0,.06,0,.18,0,.33.05.56c0,.49.11,1.21.15,2.14.11,1.86.19,4.56.17,7.89a172.19,172.19,0,0,1-2.2,25.92,43.74,43.74,0,0,1-4.2,13.69,28.12,28.12,0,0,1-7.32,9.09,19.53,19.53,0,0,1-3.89,2.29,18.23,18.23,0,0,1-3.25,1l-1.22.23-.9.08-.56.05h-.19l.19,0,.55-.08.9-.12,1.2-.26a19.12,19.12,0,0,0,3.2-1.08,19.4,19.4,0,0,0,3.81-2.3,28.27,28.27,0,0,0,7.18-9.05,44,44,0,0,0,4.14-13.59,184.71,184.71,0,0,0,2.3-25.86c.06-3.33,0-6-.05-7.88l-.08-2.15c0-.22,0-.41,0-.55S425.41,318.47,425.42,318.47Z" style="fill:#263238"></path><path d="M383.39,331.69a2.45,2.45,0,0,1-.57-.1,12,12,0,0,1-1.58-.43,17.94,17.94,0,0,1-5.3-2.9,23.13,23.13,0,0,1-5.8-6.82,32,32,0,0,1-3.52-10.38,62.25,62.25,0,0,1-.72-11c0-3.37.21-6.4.31-9s.14-4.6.14-6v-1.64a3.7,3.7,0,0,1,0-.58,4.45,4.45,0,0,1,.06.57c0,.38.05.93.07,1.64,0,1.43,0,3.49,0,6s-.2,5.58-.22,8.95A64.44,64.44,0,0,0,367,311a32.27,32.27,0,0,0,3.45,10.28,23.5,23.5,0,0,0,5.67,6.78,18.73,18.73,0,0,0,5.18,3c.67.23,1.2.4,1.56.49A4.17,4.17,0,0,1,383.39,331.69Z" style="fill:#263238"></path><path d="M371.56,283.34a3.58,3.58,0,0,1,0,.48c0,.36,0,.81-.06,1.38-.06,1.23-.15,2.94-.25,5a92.46,92.46,0,0,0,.49,16.59,47.57,47.57,0,0,0,2.05,8.89,19.44,19.44,0,0,0,3.47,6.52,11.3,11.3,0,0,0,4,3,14.09,14.09,0,0,0,1.75.6,2.72,2.72,0,0,1-.48-.06,7.92,7.92,0,0,1-1.32-.41,11,11,0,0,1-4.09-3,19.43,19.43,0,0,1-3.6-6.58,46.62,46.62,0,0,1-2.1-8.95,86.71,86.71,0,0,1-.38-16.66c.12-2.13.26-3.85.36-5,.06-.57.1-1,.13-1.37A2.43,2.43,0,0,1,371.56,283.34Z" style="fill:#263238"></path><path d="M410.88,270.67a3.07,3.07,0,0,1,0,.77c0,.5-.06,1.21-.16,2.1a20.86,20.86,0,0,1-1.72,6.72,11,11,0,0,1-4.69,5.07,7.52,7.52,0,0,1-2,.72,2.62,2.62,0,0,1-.77.08,12.3,12.3,0,0,0,2.64-1,11.37,11.37,0,0,0,4.48-5,23.22,23.22,0,0,0,1.8-6.59c.1-.82.2-1.51.27-2.08A3.13,3.13,0,0,1,410.88,270.67Z" style="fill:#263238"></path><path d="M415.37,271.17a6.49,6.49,0,0,1-.09,1c-.08.66-.21,1.61-.42,2.78a27.28,27.28,0,0,1-2.87,8.83,15.15,15.15,0,0,1-3.21,4,12.17,12.17,0,0,1-3.61,2.16,9.56,9.56,0,0,1-2.77.59,4.84,4.84,0,0,1-.77,0c-.17,0-.26,0-.26,0a11.35,11.35,0,0,0,7.18-3,15.05,15.05,0,0,0,3.12-3.94,29.29,29.29,0,0,0,2.94-8.7c.21-1.11.39-2,.53-2.75A4.49,4.49,0,0,1,415.37,271.17Z" style="fill:#263238"></path><path d="M414.67,417.25H370.19c-.3,1.22-12.43,21.34-12.43,21.34L376,470.25h34.92l16.23-31.66S415,418.47,414.67,417.25Z" style="fill:#37474F"></path><g style="opacity:0.30000000000000004"><polygon points="357.76 438.59 427.1 438.59 410.87 470.25 375.95 470.25 357.76 438.59"></polygon></g></g><g id="freepik--Shoes--inject-281"><path d="M650.79,405.65s.92-6.3,9.72-8.31,10-5.15,10.91-7.66,2.76-15,2.76-15h18a82.09,82.09,0,0,0-2.39,17.47,5.5,5.5,0,0,1,1.13,3.78,78.84,78.84,0,0,1-.88,8.3Z" style="fill:#37474F"></path><path d="M689.78,392.19a24.68,24.68,0,0,0-2.4.64,11.33,11.33,0,0,0-4.73,3.47,21.89,21.89,0,0,0-2.83,5.26,24.75,24.75,0,0,1-.9,2.34,7.85,7.85,0,0,1,.55-2.47,18.65,18.65,0,0,1,2.77-5.45,10.64,10.64,0,0,1,5-3.5,7.12,7.12,0,0,1,1.83-.34A1.54,1.54,0,0,1,689.78,392.19Z" style="fill:#263238"></path><path d="M673.62,378.23a1.5,1.5,0,0,1-.62.25,5.32,5.32,0,0,1-1.81.18,6.82,6.82,0,0,1-2.63-.72,7,7,0,0,1-1.34-.92,5.78,5.78,0,0,1-.6-.61,1.35,1.35,0,0,1-.39-1,1,1,0,0,1,.76-.79,2.21,2.21,0,0,1,.92,0,6.48,6.48,0,0,1,1.57.43,9.46,9.46,0,0,1,2.3,1.41,8.35,8.35,0,0,1,1.78,1.7,17.82,17.82,0,0,1-2-1.41,11.39,11.39,0,0,0-2.27-1.25,6.13,6.13,0,0,0-1.46-.38c-.47-.09-1.09,0-1.09.37s.46.8.82,1.14a6.66,6.66,0,0,0,1.22.87,6.87,6.87,0,0,0,2.43.77A13.18,13.18,0,0,0,673.62,378.23Z" style="fill:#263238"></path><path d="M673.76,378.58a2.11,2.11,0,0,1-.1-.77,13.59,13.59,0,0,1,.13-2.09,15.06,15.06,0,0,1,.78-3,15.5,15.5,0,0,1,.76-1.69,4.94,4.94,0,0,1,.55-.86,1.07,1.07,0,0,1,1.16-.38,1.22,1.22,0,0,1,.74.95,3.34,3.34,0,0,1,0,1.05,7.3,7.3,0,0,1-.5,1.81,9.53,9.53,0,0,1-1.69,2.65,12.27,12.27,0,0,1-1.52,1.44,2.23,2.23,0,0,1-.65.43c-.06-.07.8-.76,1.89-2.11a10.36,10.36,0,0,0,1.53-2.59,7.06,7.06,0,0,0,.43-1.7c.1-.6.06-1.26-.39-1.44s-.82.46-1.09,1a16.7,16.7,0,0,0-.76,1.62,15.65,15.65,0,0,0-.86,2.92C673.82,377.48,673.85,378.58,673.76,378.58Z" style="fill:#263238"></path><path d="M665.48,405a19.43,19.43,0,0,0-.89-4.21,35.17,35.17,0,0,0-2-3.83,7.61,7.61,0,0,1,2.5,3.65,8.79,8.79,0,0,1,.6,3.09A2.5,2.5,0,0,1,665.48,405Z" style="fill:#263238"></path><path d="M677.4,378.87c0,.15-.89,0-1.94-.09a6.8,6.8,0,0,1-1.94-.21c0-.14.86-.4,2-.31S677.45,378.74,677.4,378.87Z" style="fill:#fff"></path><path d="M676.64,383.17c0,.14-.89-.06-1.92-.26s-1.88-.33-1.88-.48.9-.24,2,0S676.69,383,676.64,383.17Z" style="fill:#fff"></path><path d="M669.27,397.34c-.13.07-.54-.5-1.08-1.14s-1-1.14-1-1.26.75.22,1.34.92S669.4,397.29,669.27,397.34Z" style="fill:#fff"></path><path d="M674.68,392.71c-.11.1-.8-.53-1.81-1s-1.93-.57-1.93-.73a2.67,2.67,0,0,1,2.15.26C674.22,391.76,674.79,392.63,674.68,392.71Z" style="fill:#fff"></path><path d="M676.12,387.64c0,.14-.93-.06-2-.17s-2-.13-2-.28.91-.37,2.06-.24S676.17,387.51,676.12,387.64Z" style="fill:#fff"></path><g style="opacity:0.30000000000000004"><path d="M650.79,405.65s.92-6.3,9.72-8.31,10-5.15,10.91-7.66,2.76-15,2.76-15h18a82.09,82.09,0,0,0-2.39,17.47,5.5,5.5,0,0,1,1.13,3.78,78.84,78.84,0,0,1-.88,8.3Z"></path></g><path d="M650.06,406.35h0a1.74,1.74,0,0,0,1.73,1.74l20.63.12a3.08,3.08,0,0,0,1.87-.63,4.27,4.27,0,0,1,1.76-.86c1.21-.18,2.11,1.55,3.2,1.49.78,0,6.18-.24,9.16-.35a2.51,2.51,0,0,0,2.41-2.17v0c.17-1.31.1-2.66-.26-2.94s-.72-.37-3.69,0-11.88,1.35-15.14,1.86c-2.13.34-15.18.15-19.89,0A1.74,1.74,0,0,0,650.06,406.35Z" style="fill:#263238"></path><rect x="646.32" y="408.21" width="69.72" height="7.83" style="fill:#ae7461"></rect><path d="M644.24,470.62c-.32-1.16,8.8-54.57,8.8-54.57h5.43L649,470.62Z" style="fill:#ae7461"></path><path d="M718.61,470.62c.32-1.16-8.79-54.57-8.79-54.57h-5.44l9.43,54.57Z" style="fill:#ae7461"></path><path d="M715.06,415.93c0,.14-15.28.26-34.12.26s-34.12-.12-34.12-.26,15.27-.26,34.12-.26S715.06,415.79,715.06,415.93Z" style="fill:#6f4439"></path><path d="M662.48,405.65s.92-6.3,9.72-8.31,10-5.15,10.91-7.66,2.76-15,2.76-15h18a82.09,82.09,0,0,0-2.39,17.47A5.5,5.5,0,0,1,702.6,396a78.84,78.84,0,0,1-.88,8.3Z" style="fill:#37474F"></path><path d="M661.75,406.35h0a1.74,1.74,0,0,0,1.73,1.74l20.63.12a3.08,3.08,0,0,0,1.87-.63,4.27,4.27,0,0,1,1.76-.86c1.21-.18,2.11,1.55,3.2,1.49.78,0,6.18-.24,9.17-.35a2.51,2.51,0,0,0,2.4-2.17v0c.17-1.31.1-2.66-.25-2.94s-.73-.37-3.7,0-11.88,1.35-15.14,1.86c-2.13.34-15.18.15-19.89,0A1.74,1.74,0,0,0,661.75,406.35Z" style="fill:#263238"></path><path d="M701.47,392.19a24.68,24.68,0,0,0-2.4.64,11.33,11.33,0,0,0-4.73,3.47,21.89,21.89,0,0,0-2.83,5.26,24.75,24.75,0,0,1-.9,2.34,7.73,7.73,0,0,1,.56-2.47,18.34,18.34,0,0,1,2.76-5.45,10.64,10.64,0,0,1,5-3.5,7.12,7.12,0,0,1,1.83-.34A1.51,1.51,0,0,1,701.47,392.19Z" style="fill:#263238"></path><path d="M685.31,378.23a1.5,1.5,0,0,1-.62.25,5.29,5.29,0,0,1-1.81.18,6.63,6.63,0,0,1-4-1.64,5.78,5.78,0,0,1-.6-.61,1.35,1.35,0,0,1-.39-1,1,1,0,0,1,.76-.79,2.21,2.21,0,0,1,.92,0,6.48,6.48,0,0,1,1.57.43,9.74,9.74,0,0,1,2.31,1.41,8.42,8.42,0,0,1,1.77,1.7,19,19,0,0,1-2-1.41,11.39,11.39,0,0,0-2.27-1.25,6.13,6.13,0,0,0-1.46-.38c-.47-.09-1.08,0-1.09.37s.46.8.82,1.14a6.66,6.66,0,0,0,1.22.87,6.87,6.87,0,0,0,2.43.77A13.18,13.18,0,0,0,685.31,378.23Z" style="fill:#263238"></path><path d="M685.45,378.58a2.11,2.11,0,0,1-.1-.77,13.59,13.59,0,0,1,.13-2.09,15.06,15.06,0,0,1,.78-3A15.5,15.5,0,0,1,687,371a4.94,4.94,0,0,1,.55-.86,1.07,1.07,0,0,1,1.16-.38,1.25,1.25,0,0,1,.75.95,3.33,3.33,0,0,1,0,1.05,7.3,7.3,0,0,1-.5,1.81,9.53,9.53,0,0,1-1.69,2.65,11.6,11.6,0,0,1-1.52,1.44,2.23,2.23,0,0,1-.65.43c-.06-.07.8-.76,1.89-2.11a10.36,10.36,0,0,0,1.53-2.59,7.06,7.06,0,0,0,.43-1.7c.1-.6.06-1.26-.39-1.44s-.82.46-1.09,1-.54,1.09-.76,1.62a16.45,16.45,0,0,0-.86,2.92C685.51,377.48,685.54,378.58,685.45,378.58Z" style="fill:#263238"></path><path d="M677.17,405a19.43,19.43,0,0,0-.89-4.21,35.17,35.17,0,0,0-2-3.83,7.61,7.61,0,0,1,2.5,3.65,8.79,8.79,0,0,1,.6,3.09A2.5,2.5,0,0,1,677.17,405Z" style="fill:#263238"></path><path d="M689.09,378.87c0,.15-.89,0-1.94-.09a6.8,6.8,0,0,1-1.94-.21c0-.14.86-.4,2-.31S689.14,378.74,689.09,378.87Z" style="fill:#fff"></path><path d="M688.33,383.17c-.05.14-.89-.06-1.92-.26s-1.88-.33-1.88-.48.9-.24,2,0S688.38,383,688.33,383.17Z" style="fill:#fff"></path><path d="M681,397.34c-.13.07-.54-.5-1.08-1.14s-1-1.14-1-1.26.75.22,1.35.92S681.09,397.29,681,397.34Z" style="fill:#fff"></path><path d="M686.37,392.71c-.11.1-.79-.53-1.81-1s-1.93-.57-1.93-.73a2.67,2.67,0,0,1,2.15.26C685.91,391.76,686.48,392.63,686.37,392.71Z" style="fill:#fff"></path><path d="M687.81,387.64c0,.14-.93-.06-2-.17s-2-.13-2-.28.91-.37,2.06-.24S687.86,387.51,687.81,387.64Z" style="fill:#fff"></path></g><g id="freepik--Boxes--inject-281"><rect x="469.71" y="437.68" width="71.93" height="32.56" style="fill:#ae7461"></rect><rect x="465.93" y="434.09" width="79.17" height="9.25" style="fill:#6f4439"></rect><path d="M512.82,457.45H499.93a2.8,2.8,0,0,1-2.8-2.8h0a2.8,2.8,0,0,1,2.8-2.79h12.89a2.79,2.79,0,0,1,2.79,2.79h0A2.79,2.79,0,0,1,512.82,457.45Z" style="fill:#6f4439"></path><rect x="556.17" y="400.65" width="73.74" height="33.38" style="fill:#ae7461"></rect><rect x="552.29" y="396.96" width="81.16" height="9.48" style="fill:#6f4439"></rect><rect x="584.29" y="415.18" width="18.94" height="5.73" rx="2.86" style="fill:#6f4439"></rect><rect x="556.17" y="436.8" width="73.74" height="33.38" style="fill:#ae7461"></rect><rect x="552.29" y="433.12" width="81.16" height="9.48" style="fill:#6f4439"></rect><path d="M600.37,457.06H587.15a2.86,2.86,0,0,1-2.86-2.86h0a2.86,2.86,0,0,1,2.86-2.86h13.22a2.86,2.86,0,0,1,2.86,2.86h0A2.86,2.86,0,0,1,600.37,457.06Z" style="fill:#6f4439"></path></g><g id="freepik--Rack--inject-281"><rect x="478.79" y="192.09" width="225.23" height="4.47" style="fill:#e0e0e0"></rect><path d="M525.9,204.05a31,31,0,0,1,26.48,0l6.16,15.46L560.29,349l-18.92,1.46h-4.46l-14.12-4.53-8.54-102.54,1.5-24.13Z" style="fill:#263238"></path><path d="M564.43,215.34h-50.5l.06-.56c0-.17.49-4.17,2.43-5.47s8.58-3.44,8.92-3.55l15.23-5.26.17.07c2.12.85,20.79,8.4,22.29,9.84a5.12,5.12,0,0,1,1.49,4.53Zm-49.36-1h48.52a4.14,4.14,0,0,0-1.26-3.21c-1-1-13.52-6.23-21.79-9.56l-14.88,5.14c-.07,0-7,2.3-8.68,3.43C515.88,210.88,515.29,213.07,515.07,214.34Z" style="fill:#263238"></path><path d="M541,201.28l-.87-.49a12.39,12.39,0,0,0,1.48-6.22,2,2,0,0,0-.8-1.56,3.66,3.66,0,0,0-2.54-.33l-.24-1a4.63,4.63,0,0,1,3.36.48,3,3,0,0,1,1.21,2.28A13,13,0,0,1,541,201.28Z" style="fill:#263238"></path><path d="M598.27,304.54s-20.88-68.82-22.95-73.64-8.49-20.19-17.2-24.32l-5.74-2.53s3.21,14.46-1.38,23.87-10.32,39-10.78,49.09,1.15,73.42,1.15,73.42l35.79-2.75-.46-34.42Z" style="fill:#37474F"></path><path d="M576.72,314.46a2.6,2.6,0,0,1-.06-.62c0-.47,0-1.06-.08-1.78,0-1.55-.14-3.78-.25-6.55-.28-5.52-.87-13.13-1.75-21.52s-1.85-16-2.51-21.47c-.33-2.74-.58-5-.72-6.51-.08-.77-.12-1.37-.14-1.78a2.27,2.27,0,0,1,0-.62,4.49,4.49,0,0,1,.11.61q.09.69.24,1.77c.22,1.6.52,3.8.88,6.49.75,5.48,1.78,13,2.66,21.45s1.42,16,1.6,21.57c.08,2.77.13,5,.1,6.55,0,.73,0,1.32,0,1.79A3.84,3.84,0,0,1,576.72,314.46Z" style="fill:#263238"></path><path d="M569.69,282.1l-.41,0-1.12,0-4.13.08.14-.17c.74,5.7,1.92,15.27,3.2,26.11l0,.33-.29-.23,5.43-.45-.23.25a98.34,98.34,0,0,0-.59-10.33c-.32-3.13-.68-5.91-1-8.23s-.59-4.11-.78-5.45c-.09-.6-.16-1.08-.22-1.47a2.7,2.7,0,0,1,0-.51,2.46,2.46,0,0,1,.14.5l.29,1.45c.25,1.27.58,3.12.94,5.43s.76,5.1,1.12,8.23a95.59,95.59,0,0,1,.65,10.38v.24l-.23,0-5.43.46-.25,0,0-.25,0-.33c-1.28-10.84-2.36-20.42-3-26.13l0-.17H564l4.21.08,1.09,0A1.44,1.44,0,0,1,569.69,282.1Z" style="fill:#263238"></path><path d="M540.14,274.3a3.52,3.52,0,0,1,.52-.66c.34-.43.9-1,1.53-1.83,1.31-1.61,3.1-4,5.2-7.08s4.47-6.79,7-11c1.24-2.11,2.54-4.34,3.82-6.68s2.61-4.78,3.7-7.36c.77-1.42-.14-2.92-.93-4.18A23.5,23.5,0,0,0,558,232l-.64-.64.88.21,6.79,1.67-.24.09a9.33,9.33,0,0,0,1.54-4.79,24.39,24.39,0,0,0-.11-4.71,49.4,49.4,0,0,0-1.52-7.62c-.57-2.1-1.12-3.73-1.52-4.83a16.24,16.24,0,0,0-.69-1.68,5.22,5.22,0,0,1,.83,1.62,53.33,53.33,0,0,1,3.3,12.46,25,25,0,0,1,.16,4.79,9.83,9.83,0,0,1-1.61,5l-.09.12-.16,0-6.8-1.64.23-.43a23.55,23.55,0,0,1,3,3.55,9.19,9.19,0,0,1,1.11,2.16,3.22,3.22,0,0,1,.16.61,2.06,2.06,0,0,1,0,.66,1.9,1.9,0,0,1-.12.63,3.53,3.53,0,0,1-.21.6,81.51,81.51,0,0,1-3.73,7.42c-1.29,2.34-2.6,4.57-3.86,6.68-2.53,4.21-4.95,7.92-7.09,11s-4,5.42-5.35,7c-.65.8-1.24,1.36-1.61,1.77A5,5,0,0,1,540.14,274.3Z" style="fill:#263238"></path><path d="M598.27,304.54s-20.88-68.82-22.95-73.64-8.49-20.19-17.2-24.32l-5.74-2.53s3.21,14.46-1.38,23.87-10.32,39-10.78,49.09,1.15,73.42,1.15,73.42l35.79-2.75-.46-34.42Z" style="fill:#455a64"></path><path d="M576.72,314.46a2.6,2.6,0,0,1-.06-.62c0-.47,0-1.06-.08-1.78,0-1.55-.14-3.78-.25-6.55-.28-5.52-.87-13.13-1.75-21.52s-1.85-16-2.51-21.47c-.33-2.74-.58-5-.72-6.51-.08-.77-.12-1.37-.14-1.78a2.27,2.27,0,0,1,0-.62,4.49,4.49,0,0,1,.11.61q.09.69.24,1.77c.22,1.6.52,3.8.88,6.49.75,5.48,1.78,13,2.66,21.45s1.42,16,1.6,21.57c.08,2.77.13,5,.1,6.55,0,.73,0,1.32,0,1.79A3.84,3.84,0,0,1,576.72,314.46Z" style="fill:#263238"></path><path d="M569.69,282.1l-.41,0-1.12,0-4.13.08.14-.17c.74,5.7,1.92,15.27,3.2,26.11l0,.33-.29-.23,5.43-.45-.23.25a98.34,98.34,0,0,0-.59-10.33c-.32-3.13-.68-5.91-1-8.23s-.59-4.11-.78-5.45c-.09-.6-.16-1.08-.22-1.47a2.7,2.7,0,0,1,0-.51,2.46,2.46,0,0,1,.14.5l.29,1.45c.25,1.27.58,3.12.94,5.43s.76,5.1,1.12,8.23a95.59,95.59,0,0,1,.65,10.38v.24l-.23,0-5.43.46-.25,0,0-.25,0-.33c-1.28-10.84-2.36-20.42-3-26.13l0-.17H564l4.21.08,1.09,0A1.44,1.44,0,0,1,569.69,282.1Z" style="fill:#263238"></path><path d="M540.14,274.3a3.52,3.52,0,0,1,.52-.66c.34-.43.9-1,1.53-1.83,1.31-1.61,3.1-4,5.2-7.08s4.47-6.79,7-11c1.24-2.11,2.54-4.34,3.82-6.68s2.61-4.78,3.7-7.36c.77-1.42-.14-2.92-.93-4.18A23.5,23.5,0,0,0,558,232l-.64-.64.88.21,6.79,1.67-.24.09a9.33,9.33,0,0,0,1.54-4.79,24.39,24.39,0,0,0-.11-4.71,49.4,49.4,0,0,0-1.52-7.62c-.57-2.1-1.12-3.73-1.52-4.83a16.24,16.24,0,0,0-.69-1.68,5.22,5.22,0,0,1,.83,1.62,53.33,53.33,0,0,1,3.3,12.46,25,25,0,0,1,.16,4.79,9.83,9.83,0,0,1-1.61,5l-.09.12-.16,0-6.8-1.64.23-.43a23.55,23.55,0,0,1,3,3.55,9.19,9.19,0,0,1,1.11,2.16,3.22,3.22,0,0,1,.16.61,2.06,2.06,0,0,1,0,.66,1.9,1.9,0,0,1-.12.63,3.53,3.53,0,0,1-.21.6,81.51,81.51,0,0,1-3.73,7.42c-1.29,2.34-2.6,4.57-3.86,6.68-2.53,4.21-4.95,7.92-7.09,11s-4,5.42-5.35,7c-.65.8-1.24,1.36-1.61,1.77A5,5,0,0,1,540.14,274.3Z" style="fill:#263238"></path><path d="M480,304.54S500.89,235.72,503,230.9s8.49-20.19,17.21-24.32l5.74-2.53s-3.22,14.46,1.37,23.87,10.33,39,10.79,49.09-1.15,73.42-1.15,73.42l-35.79-2.75.46-34.42Z" style="fill:#455a64"></path><path d="M501.56,314.46a2.78,2.78,0,0,1,0-.62c0-.47,0-1.06,0-1.79,0-1.54,0-3.78.09-6.55.18-5.53.72-13.17,1.6-21.57s1.91-16,2.66-21.45l.89-6.49c.1-.72.17-1.31.24-1.77a2.38,2.38,0,0,1,.11-.61,2.93,2.93,0,0,1,0,.62c0,.41-.06,1-.14,1.78-.14,1.54-.39,3.77-.72,6.51-.66,5.5-1.63,13.08-2.51,21.47s-1.47,16-1.75,21.52c-.12,2.77-.23,5-.26,6.55,0,.72-.05,1.31-.07,1.78A2.6,2.6,0,0,1,501.56,314.46Z" style="fill:#263238"></path><path d="M508.59,282.1a1.44,1.44,0,0,1,.36,0l1.09,0,4.21-.08h.16v.17c-.61,5.71-1.69,15.29-3,26.13l0,.33,0,.25-.25,0-5.43-.46-.24,0v-.24a93,93,0,0,1,.66-10.38c.35-3.13.75-5.92,1.11-8.23s.7-4.16.94-5.43l.3-1.45a1.83,1.83,0,0,1,.14-.5,3.55,3.55,0,0,1,0,.51l-.21,1.47c-.19,1.34-.46,3.18-.78,5.45s-.68,5.1-1,8.23a95.71,95.71,0,0,0-.59,10.33l-.24-.25,5.43.45-.28.23,0-.33c1.28-10.84,2.45-20.41,3.19-26.11l.15.17-4.13-.08-1.13,0Z" style="fill:#263238"></path><path d="M538.14,274.3a5.45,5.45,0,0,1-.6-.59c-.36-.41-.95-1-1.61-1.77-1.36-1.58-3.2-4-5.34-7s-4.56-6.76-7.09-11c-1.26-2.11-2.57-4.34-3.86-6.68a81.51,81.51,0,0,1-3.73-7.42,3.53,3.53,0,0,1-.21-.6,1.91,1.91,0,0,1-.13-.63,2.06,2.06,0,0,1,0-.66,3.2,3.2,0,0,1,.15-.61,9.61,9.61,0,0,1,1.12-2.16,23.49,23.49,0,0,1,3-3.55l.24.43-6.81,1.64-.15,0-.09-.12a9.74,9.74,0,0,1-1.61-5,25,25,0,0,1,.16-4.79,49.2,49.2,0,0,1,1.63-7.65,47.85,47.85,0,0,1,1.67-4.81,5.67,5.67,0,0,1,.82-1.62s-.28.57-.68,1.68-.95,2.73-1.53,4.83a50.72,50.72,0,0,0-1.51,7.62,24.36,24.36,0,0,0-.12,4.71,9.35,9.35,0,0,0,1.55,4.79l-.25-.09,6.8-1.67.88-.21-.65.64a23.44,23.44,0,0,0-2.91,3.48c-.8,1.26-1.71,2.76-.93,4.18,1.09,2.58,2.43,5,3.7,7.36s2.57,4.57,3.82,6.68c2.5,4.22,4.88,8,7,11s3.89,5.47,5.2,7.08c.63.82,1.19,1.4,1.53,1.83A5.16,5.16,0,0,1,538.14,274.3Z" style="fill:#263238"></path><path d="M683.21,214.53H655.79l.07-.55c0-.17.49-4.18,2.42-5.48s8.64-3.45,8.93-3.54l15-5.2.33.94-15.05,5.2c-.08,0-7,2.3-8.69,3.44-1.1.73-1.69,2.93-1.91,4.19h26.28Z" style="fill:#263238"></path><path d="M682.85,200.48,682,200a12.22,12.22,0,0,0,1.48-6.21,2,2,0,0,0-.79-1.56,3.69,3.69,0,0,0-2.55-.33l-.24-1a4.57,4.57,0,0,1,3.36.48,3,3,0,0,1,1.22,2.27A13.15,13.15,0,0,1,682.85,200.48Z" style="fill:#263238"></path><path d="M709.76,214.53H683.21v-1h25.41c-.22-1.26-.8-3.46-1.9-4.19-1.69-1.14-8.61-3.41-8.68-3.43l-15.78-5.21.31-.95L698.35,205c.29.09,7.12,2.34,8.92,3.54s2.41,5.31,2.43,5.48Z" style="fill:#263238"></path><path d="M608.09,213.91H580.68l.06-.56c0-.17.49-4.17,2.42-5.47s8.64-3.45,8.93-3.55l15-5.2.33,1-15.05,5.2c-.08,0-7,2.3-8.69,3.43-1.1.74-1.69,2.93-1.91,4.2h26.28Z" style="fill:#263238"></path><path d="M607.73,199.85l-.87-.49a12.27,12.27,0,0,0,1.48-6.22,2,2,0,0,0-.8-1.56,3.64,3.64,0,0,0-2.54-.32l-.24-1a4.68,4.68,0,0,1,3.36.48,3,3,0,0,1,1.22,2.28A13.1,13.1,0,0,1,607.73,199.85Z" style="fill:#263238"></path><path d="M634.64,213.91H608.09v-1H633.5c-.22-1.27-.8-3.46-1.9-4.2-1.69-1.13-8.61-3.41-8.68-3.43l-15.78-5.2.31-1,15.78,5.2c.29.1,7.12,2.34,8.92,3.55s2.41,5.3,2.43,5.47Z" style="fill:#263238"></path><path d="M583.76,207.61c0,.71.44,18.71.44,18.71s-.89,7-1.25,13.59,4,11.53,4.34,18.5l-.59,11.17H630l-.74-10c4.71-21.88,3.25-30.92,3.25-30.92l-.73-20.93-5.34-2.49L625,225.79s-11.76,3.75-16.87,9.65c0,0-10.86-8.69-18.19-9.94l-1-20.27Z" style="fill:#37474F"></path><path d="M650.88,293c-4.32,20-13.09,67.48-13.09,67.48h89.46s-9.85-47.5-14.16-67.48-12-27-12-27l4.28-22,19.78-7.49s-10-20.21-12.94-25-14.53-7.26-14.53-7.26l-15,35.65-16.34-35.65s-11.58,2.5-14.54,7.26-12.94,25-12.94,25l19.79,7.49,4.28,22S655.19,273,650.88,293Z" style="fill:#37474F"></path><path d="M700.94,266.08c0,.14-8.49.26-19,.26s-19-.12-19-.26,8.49-.26,19-.26S700.94,265.93,700.94,266.08Z" style="fill:#263238"></path><path d="M651.48,225.71c.13-.05,1.83,4.43,3.78,10s3.42,10.13,3.29,10.17-1.83-4.43-3.78-10S651.34,225.76,651.48,225.71Z" style="fill:#263238"></path><path d="M708,221.33a24.85,24.85,0,0,1-.4,3.54l-1.18,8.52c-.42,3.26-.79,6.21-1.09,8.53a26.72,26.72,0,0,1-.54,3.53,3.6,3.6,0,0,1,0-1c0-.62.09-1.51.18-2.61.18-2.19.5-5.22.94-8.56s.94-6.34,1.33-8.51c.2-1.08.38-1.95.51-2.56A3.9,3.9,0,0,1,708,221.33Z" style="fill:#263238"></path><path d="M713.46,294.43c0,.15-14.05.26-31.38.26s-31.38-.11-31.38-.26,14-.26,31.38-.26S713.46,294.29,713.46,294.43Z" style="fill:#fff"></path><path d="M717.69,318.87c0,.14-16.24.26-36.26.26s-36.26-.12-36.26-.26,16.23-.26,36.26-.26S717.69,318.72,717.69,318.87Z" style="fill:#fff"></path><path d="M715.54,305.35c0,.14-15,.26-33.56.26s-33.55-.12-33.55-.26,15-.26,33.55-.26S715.54,305.2,715.54,305.35Z" style="fill:#fff"></path><path d="M486.6,204.05a31,31,0,0,1,26.48,0l6.16,15.46L521,349l-18.92,1.46h-4.46l-14.12-4.53L475,243.36l1.5-24.13Z" style="fill:#37474F"></path><g style="opacity:0.30000000000000004"><path d="M486.6,204.05a31,31,0,0,1,26.48,0l6.16,15.46L521,349l-18.92,1.46h-4.46l-14.12-4.53L475,243.36l1.5-24.13Z"></path></g><path d="M486.6,204.05a31,31,0,0,1,26.48,0l6.16,15.46L521,349l-18.92,1.46h-4.46l-14.12-4.53L475,243.36l1.5-24.13Z" style="fill:#37474F"></path><g style="opacity:0.30000000000000004"><path d="M486.6,204.05a31,31,0,0,1,26.48,0l6.16,15.46L521,349l-18.92,1.46h-4.46l-14.12-4.53L475,243.36l1.5-24.13Z"></path></g><path d="M525.13,215.34h-50.5l.06-.56c0-.17.49-4.17,2.43-5.47s8.57-3.43,8.92-3.55l15.22-5.26.18.07c2.12.85,20.79,8.4,22.28,9.84a5.14,5.14,0,0,1,1.5,4.53Zm-49.36-1h48.51a4.09,4.09,0,0,0-1.25-3.21c-1-1-13.52-6.23-21.79-9.56l-14.88,5.14c-.07,0-7,2.3-8.68,3.43C476.57,210.88,476,213.07,475.77,214.34Z" style="fill:#263238"></path><path d="M501.68,201.28l-.87-.49a12.24,12.24,0,0,0,1.49-6.22,2.07,2.07,0,0,0-.8-1.56,3.69,3.69,0,0,0-2.55-.33l-.23-1a4.63,4.63,0,0,1,3.36.48,3,3,0,0,1,1.21,2.28A13,13,0,0,1,501.68,201.28Z" style="fill:#263238"></path><path d="M559,304.54S538.09,235.72,536,230.9s-8.49-20.19-17.21-24.32l-5.73-2.53s3.21,14.46-1.38,23.87-10.32,39-10.78,49.09,1.15,73.42,1.15,73.42l35.79-2.75-.46-34.42Z" style="fill:#37474F"></path><path d="M537.41,314.46a5.34,5.34,0,0,1-.06-.62l-.07-1.78c0-1.55-.14-3.78-.26-6.55-.27-5.52-.86-13.13-1.75-21.52s-1.85-16-2.5-21.47c-.33-2.74-.58-5-.73-6.51-.08-.77-.11-1.37-.14-1.78a4.17,4.17,0,0,1,0-.62,2.61,2.61,0,0,1,.12.61c.06.46.14,1.05.23,1.77l.89,6.49c.75,5.48,1.78,13,2.66,21.45s1.42,16,1.6,21.57c.07,2.77.13,5,.1,6.55,0,.73,0,1.32,0,1.79A2.37,2.37,0,0,1,537.41,314.46Z" style="fill:#263238"></path><path d="M530.39,282.1l-.41,0-1.12,0-4.13.08.14-.17c.74,5.7,1.92,15.27,3.19,26.11l0,.33-.28-.23,5.43-.45-.23.25a101.12,101.12,0,0,0-.59-10.33c-.32-3.13-.68-5.91-1-8.23s-.59-4.11-.79-5.45c-.08-.6-.15-1.08-.21-1.47a2.7,2.7,0,0,1,0-.51,3.21,3.21,0,0,1,.13.5l.3,1.45c.25,1.27.58,3.12.94,5.43s.76,5.1,1.11,8.23a93,93,0,0,1,.66,10.38v.24l-.23,0-5.43.46-.25,0,0-.25,0-.33c-1.28-10.84-2.37-20.42-3-26.13l0-.17h.17l4.21.08,1.09,0A1.65,1.65,0,0,1,530.39,282.1Z" style="fill:#263238"></path><path d="M500.84,274.3a3.68,3.68,0,0,1,.51-.66c.34-.43.91-1,1.54-1.83,1.31-1.61,3.1-4,5.2-7.08s4.47-6.79,7-11c1.24-2.11,2.54-4.34,3.82-6.68a81.49,81.49,0,0,0,3.69-7.36c.78-1.42-.13-2.92-.92-4.18a24.13,24.13,0,0,0-2.92-3.48l-.64-.64.88.21,6.79,1.67-.24.09a9.33,9.33,0,0,0,1.54-4.79,24.39,24.39,0,0,0-.11-4.71,50.62,50.62,0,0,0-1.52-7.62c-.57-2.1-1.12-3.73-1.52-4.83a16.24,16.24,0,0,0-.69-1.68,5.22,5.22,0,0,1,.83,1.62c.45,1.09,1,2.72,1.66,4.81a48.07,48.07,0,0,1,1.63,7.65,23.52,23.52,0,0,1,.16,4.79,9.72,9.72,0,0,1-1.6,5l-.09.12-.16,0-6.8-1.64.23-.43a23.55,23.55,0,0,1,3,3.55,10,10,0,0,1,1.11,2.16,3.22,3.22,0,0,1,.16.61,2.4,2.4,0,0,1,0,.66,1.9,1.9,0,0,1-.12.63,4.68,4.68,0,0,1-.21.6c-1.12,2.65-2.46,5.06-3.74,7.42s-2.59,4.57-3.85,6.68c-2.54,4.21-5,7.92-7.09,11s-4,5.42-5.35,7c-.65.8-1.24,1.36-1.61,1.77A6.2,6.2,0,0,1,500.84,274.3Z" style="fill:#263238"></path><path d="M559,304.54S538.09,235.72,536,230.9s-8.49-20.19-17.21-24.32l-5.73-2.53s3.21,14.46-1.38,23.87-10.32,39-10.78,49.09,1.15,73.42,1.15,73.42l35.79-2.75-.46-34.42Z" style="fill:#37474F"></path><path d="M537.41,314.46a5.34,5.34,0,0,1-.06-.62l-.07-1.78c0-1.55-.14-3.78-.26-6.55-.27-5.52-.86-13.13-1.75-21.52s-1.85-16-2.5-21.47c-.33-2.74-.58-5-.73-6.51-.08-.77-.11-1.37-.14-1.78a4.17,4.17,0,0,1,0-.62,2.61,2.61,0,0,1,.12.61c.06.46.14,1.05.23,1.77l.89,6.49c.75,5.48,1.78,13,2.66,21.45s1.42,16,1.6,21.57c.07,2.77.13,5,.1,6.55,0,.73,0,1.32,0,1.79A2.37,2.37,0,0,1,537.41,314.46Z" style="fill:#263238"></path><path d="M530.39,282.1l-.41,0-1.12,0-4.13.08.14-.17c.74,5.7,1.92,15.27,3.19,26.11l0,.33-.28-.23,5.43-.45-.23.25a101.12,101.12,0,0,0-.59-10.33c-.32-3.13-.68-5.91-1-8.23s-.59-4.11-.79-5.45c-.08-.6-.15-1.08-.21-1.47a2.7,2.7,0,0,1,0-.51,3.21,3.21,0,0,1,.13.5l.3,1.45c.25,1.27.58,3.12.94,5.43s.76,5.1,1.11,8.23a93,93,0,0,1,.66,10.38v.24l-.23,0-5.43.46-.25,0,0-.25,0-.33c-1.28-10.84-2.37-20.42-3-26.13l0-.17h.17l4.21.08,1.09,0A1.65,1.65,0,0,1,530.39,282.1Z" style="fill:#263238"></path><path d="M500.84,274.3a3.68,3.68,0,0,1,.51-.66c.34-.43.91-1,1.54-1.83,1.31-1.61,3.1-4,5.2-7.08s4.47-6.79,7-11c1.24-2.11,2.54-4.34,3.82-6.68a81.49,81.49,0,0,0,3.69-7.36c.78-1.42-.13-2.92-.92-4.18a24.13,24.13,0,0,0-2.92-3.48l-.64-.64.88.21,6.79,1.67-.24.09a9.33,9.33,0,0,0,1.54-4.79,24.39,24.39,0,0,0-.11-4.71,50.62,50.62,0,0,0-1.52-7.62c-.57-2.1-1.12-3.73-1.52-4.83a16.24,16.24,0,0,0-.69-1.68,5.22,5.22,0,0,1,.83,1.62c.45,1.09,1,2.72,1.66,4.81a48.07,48.07,0,0,1,1.63,7.65,23.52,23.52,0,0,1,.16,4.79,9.72,9.72,0,0,1-1.6,5l-.09.12-.16,0-6.8-1.64.23-.43a23.55,23.55,0,0,1,3,3.55,10,10,0,0,1,1.11,2.16,3.22,3.22,0,0,1,.16.61,2.4,2.4,0,0,1,0,.66,1.9,1.9,0,0,1-.12.63,4.68,4.68,0,0,1-.21.6c-1.12,2.65-2.46,5.06-3.74,7.42s-2.59,4.57-3.85,6.68c-2.54,4.21-5,7.92-7.09,11s-4,5.42-5.35,7c-.65.8-1.24,1.36-1.61,1.77A6.2,6.2,0,0,1,500.84,274.3Z" style="fill:#263238"></path><path d="M440.71,304.54s20.88-68.82,22.94-73.64,8.49-20.19,17.21-24.32l5.74-2.53s-3.22,14.46,1.37,23.87,10.33,39,10.78,49.09-1.14,73.42-1.14,73.42l-35.79-2.75.46-34.42Z" style="fill:#37474F"></path><path d="M462.26,314.46a3.09,3.09,0,0,1-.05-.62c0-.47,0-1.06,0-1.79,0-1.54,0-3.78.09-6.55.18-5.53.72-13.17,1.6-21.57s1.91-16,2.66-21.45l.89-6.49c.09-.72.17-1.31.23-1.77a2.61,2.61,0,0,1,.12-.61,2.93,2.93,0,0,1,0,.62c0,.41-.06,1-.14,1.78-.14,1.54-.39,3.77-.72,6.51-.66,5.5-1.63,13.08-2.51,21.47s-1.48,16-1.75,21.52c-.12,2.77-.23,5-.26,6.55,0,.72-.05,1.31-.07,1.78A2.6,2.6,0,0,1,462.26,314.46Z" style="fill:#263238"></path><path d="M469.29,282.1a1.39,1.39,0,0,1,.35,0l1.1,0L475,282h.16l0,.17c-.6,5.71-1.69,15.29-3,26.13l0,.33,0,.25-.25,0-5.43-.46-.24,0v-.24a93,93,0,0,1,.66-10.38c.35-3.13.75-5.92,1.11-8.23s.7-4.16.94-5.43l.3-1.45a1.83,1.83,0,0,1,.14-.5,3.55,3.55,0,0,1-.05.51c-.06.39-.12.87-.21,1.47-.19,1.34-.46,3.18-.79,5.45s-.67,5.1-1,8.23a101.12,101.12,0,0,0-.59,10.33l-.23-.25,5.43.45-.28.23,0-.33c1.28-10.84,2.45-20.41,3.19-26.11l.15.17-4.14-.08-1.12,0Z" style="fill:#263238"></path><path d="M498.84,274.3a4.53,4.53,0,0,1-.6-.59c-.36-.41-.95-1-1.61-1.77-1.36-1.58-3.2-4-5.35-7s-4.55-6.76-7.08-11c-1.26-2.11-2.58-4.34-3.86-6.68s-2.62-4.77-3.74-7.42a4.69,4.69,0,0,1-.2-.6,1.69,1.69,0,0,1-.13-.63,2.06,2.06,0,0,1,.05-.66,3.2,3.2,0,0,1,.15-.61,9.61,9.61,0,0,1,1.12-2.16,23.49,23.49,0,0,1,3-3.55l.24.43L474,233.73l-.15,0-.09-.12a9.65,9.65,0,0,1-1.61-5,24.26,24.26,0,0,1,.16-4.79,48.07,48.07,0,0,1,1.63-7.65c.62-2.09,1.21-3.72,1.66-4.81a5.82,5.82,0,0,1,.83-1.62s-.28.57-.68,1.68-1,2.73-1.53,4.83a49.5,49.5,0,0,0-1.51,7.62,24.36,24.36,0,0,0-.12,4.71,9.25,9.25,0,0,0,1.55,4.79l-.25-.09,6.8-1.67.88-.21-.65.64A23.44,23.44,0,0,0,478,235.5c-.8,1.26-1.71,2.76-.93,4.18,1.09,2.58,2.43,5,3.69,7.36s2.58,4.57,3.83,6.68c2.5,4.22,4.88,8,7,11s3.89,5.47,5.2,7.08c.63.82,1.19,1.4,1.53,1.83A5.16,5.16,0,0,1,498.84,274.3Z" style="fill:#263238"></path><path d="M603.1,243.29a23.37,23.37,0,0,0-16.67,10.38A23.49,23.49,0,0,0,603.1,243.29Z" style="fill:#fff"></path><path d="M586.43,253.67a15,15,0,0,0,7.69,5.68,45,45,0,0,0,9.52,1.91A19.28,19.28,0,0,0,586.43,253.67Z" style="fill:#fff"></path><path d="M612.17,246.83a23.36,23.36,0,0,0,19.6-1.06A23.42,23.42,0,0,0,612.17,246.83Z" style="fill:#fff"></path><path d="M631.77,245.77a14.93,14.93,0,0,0-4-8.68,45,45,0,0,0-7.42-6.27A19.29,19.29,0,0,0,631.77,245.77Z" style="fill:#fff"></path><path d="M609,255.08a17.62,17.62,0,0,0,3.44,14.39A17.63,17.63,0,0,0,609,255.08Z" style="fill:#fff"></path><path d="M612.43,269.47a11.24,11.24,0,0,0,5.9-4.14A33.81,33.81,0,0,0,622,259,14.54,14.54,0,0,0,612.43,269.47Z" style="fill:#fff"></path><path d="M595.64,227.56a16.52,16.52,0,0,0-3.17,13.86,29.17,29.17,0,0,0,4.95-13" style="fill:#fff"></path></g><g id="freepik--shelf-5--inject-281"><rect x="475.91" y="171.5" width="225.33" height="10.63" style="fill:#ae7461"></rect><path d="M546.76,171.5H487.31a5.57,5.57,0,0,1-5.58-5.57h0a5.58,5.58,0,0,1,5.58-5.58h59.45a5.58,5.58,0,0,1,5.58,5.58h0A5.57,5.57,0,0,1,546.76,171.5Z" style="fill:#37474F"></path><path d="M552.34,166.39c0,.14-13.63.26-30.43.26s-30.43-.12-30.43-.26,13.62-.26,30.43-.26S552.34,166.24,552.34,166.39Z" style="fill:#263238"></path><path d="M487.08,149.2h59.45a5.57,5.57,0,0,1,5.57,5.57h0a5.57,5.57,0,0,1-5.57,5.58H487.08a5.58,5.58,0,0,1-5.58-5.58h0A5.57,5.57,0,0,1,487.08,149.2Z" style="fill:#455a64"></path><path d="M481.5,154.31c0-.14,13.63-.26,30.43-.26s30.43.12,30.43.26-13.62.26-30.43.26S481.5,154.46,481.5,154.31Z" style="fill:#263238"></path><path d="M686.45,171.5H647.39a5.57,5.57,0,0,1-5.58-5.57h0a5.58,5.58,0,0,1,5.58-5.58h39.06a5.58,5.58,0,0,1,5.58,5.58h0A5.57,5.57,0,0,1,686.45,171.5Z" style="fill:#37474F"></path><path d="M692,166.39c0,.14-9.69.26-21.64.26s-21.65-.12-21.65-.26,9.69-.26,21.65-.26S692,166.24,692,166.39Z" style="fill:#263238"></path><path d="M647.22,149.2h39.07a5.57,5.57,0,0,1,5.58,5.57h0a5.58,5.58,0,0,1-5.58,5.58H647.22a5.58,5.58,0,0,1-5.58-5.58h0A5.57,5.57,0,0,1,647.22,149.2Z" style="fill:#e0e0e0"></path><path d="M641.64,154.31c0-.14,9.69-.26,21.65-.26s21.64.12,21.64.26-9.69.26-21.64.26S641.64,154.46,641.64,154.31Z" style="fill:#263238"></path><path d="M616.14,149.49H577.07a5.57,5.57,0,0,1-5.58-5.57h0a5.58,5.58,0,0,1,5.58-5.58h39.07a5.57,5.57,0,0,1,5.57,5.58h0A5.57,5.57,0,0,1,616.14,149.49Z" style="fill:#37474F"></path><path d="M586.4,138.34h-3.6a13.85,13.85,0,0,0,5.32,11.15A12.3,12.3,0,0,0,586.4,138.34Z" style="fill:#fff"></path><path d="M611.42,138.34h-3.6a13.85,13.85,0,0,0,5.32,11.15A12.33,12.33,0,0,0,611.42,138.34Z" style="fill:#fff"></path><path d="M596.88,149.49h2.91a11.19,11.19,0,0,0-4.31-9A10,10,0,0,0,596.88,149.49Z" style="fill:#fff"></path><path d="M621.71,144.38c0,.14-9.69.26-21.64.26s-21.65-.12-21.65-.26,9.69-.26,21.65-.26S621.71,144.23,621.71,144.38Z" style="fill:#263238"></path><path d="M616.14,171.5H577.07a5.57,5.57,0,0,1-5.58-5.57h0a5.58,5.58,0,0,1,5.58-5.58h39.07a5.57,5.57,0,0,1,5.57,5.58h0A5.57,5.57,0,0,1,616.14,171.5Z" style="fill:#e0e0e0"></path><path d="M586.4,160.35h-3.6a13.85,13.85,0,0,0,5.32,11.15A12.3,12.3,0,0,0,586.4,160.35Z" style="fill:#fff"></path><path d="M611.42,160.35h-3.6a13.85,13.85,0,0,0,5.32,11.15A12.33,12.33,0,0,0,611.42,160.35Z" style="fill:#fff"></path><path d="M621.71,166.39c0,.14-9.69.26-21.64.26s-21.65-.12-21.65-.26,9.69-.26,21.65-.26S621.71,166.24,621.71,166.39Z" style="fill:#263238"></path><path d="M577.07,149.49h39.07a5.57,5.57,0,0,1,5.57,5.58h0a5.57,5.57,0,0,1-5.57,5.58H577.07a5.58,5.58,0,0,1-5.58-5.58h0A5.58,5.58,0,0,1,577.07,149.49Z" style="fill:#455a64"></path><path d="M594.31,149.6h-2.9a11.18,11.18,0,0,0,4.3,9A9.93,9.93,0,0,0,594.31,149.6Z" style="fill:#fff"></path><path d="M571.49,154.61c0-.14,9.69-.26,21.64-.26s21.65.12,21.65.26-9.69.26-21.65.26S571.49,154.75,571.49,154.61Z" style="fill:#263238"></path></g><g id="freepik--shelf-4--inject-281"><path d="M622,62.41l7.45,38.9a5.27,5.27,0,0,0,5.17,4.27h42.83a5.26,5.26,0,0,0,5.19-4.39l6.51-38.78Z" style="fill:#455a64"></path><path d="M640.32,62.62l-.91-.41L650.83,36.8a5.66,5.66,0,0,1,9.6.09L670.9,62.22l-.92.39L659.51,37.28a4.69,4.69,0,0,0-7.77-.07Z" style="fill:#263238"></path><rect x="636.75" y="62.02" width="6.24" height="7.44" style="fill:#263238"></rect><rect x="667.33" y="62.02" width="6.24" height="7.44" style="fill:#263238"></rect><path d="M494.41,75.72l-4.64,22.43a5.26,5.26,0,0,0,5.16,6.33h37.74a5.27,5.27,0,0,0,5.18-6.26l-4.3-22.42a5.4,5.4,0,0,0-5.3-4.38H499.69A5.4,5.4,0,0,0,494.41,75.72Z" style="fill:#37474F"></path><path d="M525.4,76.65h-1v-7a10.13,10.13,0,0,0-20.26,0v5.7h-1v-5.7a11.13,11.13,0,0,1,22.26,0Z" style="fill:#263238"></path><rect x="501.02" y="73.13" width="5.25" height="5.25" style="fill:#263238"></rect><rect x="522.03" y="73.13" width="5.25" height="5.25" style="fill:#263238"></rect><path d="M522.2,90.23H505.94a1.78,1.78,0,0,1-1.77-1.78h0a1.78,1.78,0,0,1,1.77-1.78H522.2A1.78,1.78,0,0,1,524,88.45h0A1.78,1.78,0,0,1,522.2,90.23Z" style="fill:#263238"></path><rect x="475.91" y="104.68" width="225.33" height="10.63" style="fill:#ae7461"></rect><path d="M614,79.34H591.58v-14a11.2,11.2,0,1,1,22.39,0Zm-21.39-1H613v-13a10.2,10.2,0,1,0-20.39,0Z" style="fill:#263238"></path><path d="M584,104.68V90.93a25.07,25.07,0,0,1,1.45-8.4L588,75.38h29.11l2.59,6.37a25,25,0,0,1,1.85,9.44v13.49Z" style="fill:#37474F"></path><rect x="588.34" y="71.37" width="28.88" height="4.01" style="fill:#263238"></rect><path d="M567.22,76.29H537v-19a15.09,15.09,0,1,1,30.18,0Zm-29.18-1h28.18v-18a14.09,14.09,0,1,0-28.18,0Z" style="fill:#37474F"></path><path d="M526.5,104.68V85.92a34.13,34.13,0,0,1,2-11.45L532,64.72h39.7l3.54,8.68a34.28,34.28,0,0,1,2.52,12.88v18.4Z" style="fill:#455a64"></path><rect x="532.44" y="59.25" width="39.39" height="5.47" style="fill:#37474F"></rect><path d="M571.83,64.72a1.7,1.7,0,0,1,0,.37c0,.28,0,.63,0,1.07,0,1,0,2.35.06,4.06,0,3.55,0,8.53.09,14.48v.22h-.22l-19.7,0-19.69,0h-.23V84.7c0-6,.07-10.93.09-14.48,0-1.71.05-3.08.07-4.06,0-.44,0-.79,0-1.07s0-.37,0-.37a1.7,1.7,0,0,1,0,.37c0,.28,0,.63,0,1.07,0,1,0,2.35.06,4.06,0,3.55,0,8.53.09,14.48l-.22-.23,19.69,0,19.7,0-.23.23c0-6,.07-10.93.1-14.48,0-1.71,0-3.07.06-4.06,0-.44,0-.79,0-1.07A1.3,1.3,0,0,1,571.83,64.72Z" style="fill:#263238"></path><rect x="547.13" y="82.58" width="8.54" height="3.91" style="fill:#37474F"></rect></g><g id="freepik--shelf-3--inject-281"><path d="M389.55,164.27H359.37v-19a15.09,15.09,0,0,1,30.18,0Zm-29.18-1h28.18v-18a14.09,14.09,0,0,0-28.18,0Z" style="fill:#37474F"></path><path d="M348.83,194.11V174.68a36.5,36.5,0,0,1,2-11.87l3.47-10.11H394l3.54,9A36.63,36.63,0,0,1,400,175.05v19.06Z" style="fill:#263238"></path><rect x="354.76" y="147.24" width="39.39" height="5.47" style="fill:#37474F"></rect><path d="M394.16,152.7a1.82,1.82,0,0,1,0,.37c0,.28,0,.64,0,1.07,0,1,0,2.35.06,4.06,0,3.55,0,8.53.09,14.49v.22h-.22l-19.7,0-19.7,0h-.22v-.22c0-6,.07-10.94.09-14.49,0-1.71.05-3.07.07-4.06l0-1.07a1.82,1.82,0,0,1,0-.37s0,.13,0,.37,0,.64,0,1.07c0,1,0,2.35.07,4.06,0,3.55.05,8.53.09,14.49l-.23-.23,19.7,0,19.7,0-.23.23c0-6,.07-10.94.09-14.49,0-1.71.05-3.07.07-4.06,0-.43,0-.79,0-1.07S394.14,152.7,394.16,152.7Z" style="fill:#455a64"></path><rect x="369.46" y="170.57" width="8.54" height="3.91" style="fill:#37474F"></rect><rect x="333.65" y="194.05" width="81.98" height="10.63" style="fill:#ae7461"></rect></g><g id="freepik--shelf-2--inject-281"><rect x="334.38" y="102.71" width="81.98" height="10.63" style="fill:#ae7461"></rect><path d="M405.33,102.71H345.88a5.58,5.58,0,0,1-5.58-5.58h0a5.58,5.58,0,0,1,5.58-5.58h59.45a5.58,5.58,0,0,1,5.58,5.58h0A5.58,5.58,0,0,1,405.33,102.71Z" style="fill:#37474F"></path><path d="M410.91,97.59c0,.15-13.63.26-30.43.26s-30.43-.11-30.43-.26,13.62-.26,30.43-.26S410.91,97.45,410.91,97.59Z" style="fill:#263238"></path><path d="M345.65,80.4H405.1A5.57,5.57,0,0,1,410.67,86h0a5.57,5.57,0,0,1-5.57,5.57H345.65A5.57,5.57,0,0,1,340.07,86h0A5.58,5.58,0,0,1,345.65,80.4Z" style="fill:#455a64"></path><path d="M340.07,85.51c0-.14,13.63-.26,30.43-.26s30.43.12,30.43.26-13.62.27-30.43.27S340.07,85.66,340.07,85.51Z" style="fill:#263238"></path></g><g id="freepik--shelf-1--inject-281"><path d="M49,97.14,56.45,136a5.26,5.26,0,0,0,5.16,4.28h42.83a5.26,5.26,0,0,0,5.19-4.4l6.51-38.77Z" style="fill:#37474F"></path><path d="M67.34,97.35l-.92-.42,11.42-25.4a5.15,5.15,0,0,1,4.78-2.63,5.08,5.08,0,0,1,4.82,2.72L97.91,97l-.92.38L86.52,72a4.68,4.68,0,0,0-7.77-.06Z" style="fill:#263238"></path><rect x="63.76" y="96.74" width="6.24" height="7.44" style="fill:#263238"></rect><rect x="94.34" y="96.74" width="6.24" height="7.44" style="fill:#263238"></rect><path d="M111.6,123.85c0,.14-12.81.26-28.62.26s-28.61-.12-28.61-.26,12.81-.26,28.61-.26S111.6,123.7,111.6,123.85Z" style="fill:#fff"></path><path d="M110.5,128.55c0,.14-12.42.26-27.74.26S55,128.69,55,128.55s12.42-.26,27.75-.26S110.5,128.4,110.5,128.55Z" style="fill:#fff"></path><rect x="41.76" y="136.01" width="81.98" height="10.63" style="fill:#ae7461"></rect></g><g id="freepik--Counter--inject-281"><g id="freepik--2--inject-281"><path d="M89.92,259.75c-.07-.07-.39-.28-.5-.36a4.07,4.07,0,0,0-.58-.36,2.68,2.68,0,0,0,.53.48l.45.37a.08.08,0,0,0,.12,0A.07.07,0,0,0,89.92,259.75Z" style="fill:#e0e0e0"></path><path d="M89.24,267.3l-.59.15a5.59,5.59,0,0,0-.65.21,2.68,2.68,0,0,0,.71-.09l.57-.1s.07,0,.06-.11S89.3,267.3,89.24,267.3Z" style="fill:#e0e0e0"></path><path d="M91.59,273.15c-.1,0-.43.22-.55.28a4.29,4.29,0,0,0-.59.34,3.06,3.06,0,0,0,.67-.24c.12,0,.44-.18.53-.23s.07,0,0-.11A.07.07,0,0,0,91.59,273.15Z" style="fill:#e0e0e0"></path><path d="M93.75,277.47c-.1,0-.43.21-.55.28a3.45,3.45,0,0,0-.59.34,3.06,3.06,0,0,0,.67-.24l.53-.23s.07,0,0-.11A.07.07,0,0,0,93.75,277.47Z" style="fill:#e0e0e0"></path><path d="M95.58,281.39l-.54.28a5.31,5.31,0,0,0-.6.34,3,3,0,0,0,.68-.24c.12,0,.44-.18.53-.23s.07,0,0-.11A.08.08,0,0,0,95.58,281.39Z" style="fill:#e0e0e0"></path><path d="M97.05,284.84c-.09,0-.41.25-.53.32a4.73,4.73,0,0,0-.56.38,2.67,2.67,0,0,0,.65-.29l.52-.26s.07-.05,0-.12S97.1,284.82,97.05,284.84Z" style="fill:#e0e0e0"></path><path d="M88.88,263h-.61a5,5,0,0,0-.68.05,3.13,3.13,0,0,0,.71.08l.58,0s.08,0,.08-.08S88.94,263,88.88,263Z" style="fill:#e0e0e0"></path><path d="M92.48,258.26c0-.09-.21-.43-.26-.55a6.44,6.44,0,0,0-.33-.6,2.83,2.83,0,0,0,.22.68c0,.12.17.45.22.54s0,.07.11,0A.08.08,0,0,0,92.48,258.26Z" style="fill:#e0e0e0"></path><path d="M93.62,257.5a15.16,15.16,0,0,1-1.54.19l-1.29,1.14c-.06.06-1.34.6-1.39.68a13.57,13.57,0,0,0-.36,1.74,11,11,0,0,0-.77,2c0,.18.44,2.15.44,2.15s0,2,0,2.06,1.25,2.52,1.39,2.68c0,0,1,3.08,1,3.24a17,17,0,0,1,1.4,2.16c.32.7.62,2.23.68,2.22a13.51,13.51,0,0,1,1.28,1.85c.18.56.36,2.05.4,2.12s.63.9.76,1.12a19.27,19.27,0,0,1,.78,2.29,3.58,3.58,0,0,0,1.06.85c.9-.21,2.59-.67,3.17-.9C100.93,285,93.62,257.5,93.62,257.5Z" style="fill:#455a64"></path><path d="M101.74,264.29l.59-.14A4,4,0,0,1,103,264a3.61,3.61,0,0,1-.67.24l-.56.17s-.08,0-.1-.07A.07.07,0,0,1,101.74,264.29Z" style="fill:#e0e0e0"></path><path d="M102.33,270.55h.61a4,4,0,0,1,.69,0,2.78,2.78,0,0,1-.71.09l-.58,0s-.08,0-.08-.08S102.28,270.56,102.33,270.55Z" style="fill:#e0e0e0"></path><path d="M102.61,275.33h.61a5.77,5.77,0,0,1,.68,0,2.84,2.84,0,0,1-.71.1l-.58,0s-.08,0-.08-.08A.07.07,0,0,1,102.61,275.33Z" style="fill:#e0e0e0"></path><path d="M102.94,279.61h.61a4,4,0,0,1,.68,0,3.38,3.38,0,0,1-.71.09l-.58,0s-.08,0-.08-.08A.08.08,0,0,1,102.94,279.61Z" style="fill:#e0e0e0"></path><path d="M103.31,283.35l.61,0a4.22,4.22,0,0,1,.68.08,3.12,3.12,0,0,1-.71,0h-.58s-.08,0-.08-.09S103.26,283.36,103.31,283.35Z" style="fill:#e0e0e0"></path><path d="M100.24,260.28l.54-.27a5.82,5.82,0,0,1,.63-.27,2.65,2.65,0,0,1-.59.4l-.5.29a.08.08,0,0,1-.12,0A.08.08,0,0,1,100.24,260.28Z" style="fill:#e0e0e0"></path><path d="M97.87,257.57c0-.09.22-.42.28-.54a4.82,4.82,0,0,1,.35-.59,2.71,2.71,0,0,1-.25.67c0,.12-.19.45-.23.53s0,.07-.12,0S97.85,257.62,97.87,257.57Z" style="fill:#e0e0e0"></path><path d="M95.27,257.5c0-.1,0-.48,0-.61a6.56,6.56,0,0,1,0-.69,3.21,3.21,0,0,1,.11.71c0,.13.05.48.06.58s0,.08-.08.09A.09.09,0,0,1,95.27,257.5Z" style="fill:#e0e0e0"></path><path d="M93.68,257.48l1.56-.57c.07,0,1.35.44,1.44.49s1.24,0,1.32,0a15.25,15.25,0,0,1,1,1.41,11.66,11.66,0,0,1,1.42,1.49c.07.16.57,2.12.57,2.12s.87,1.77.89,1.84.14,2.8.1,3c0,0,.57,3.19.59,3.35a19.39,19.39,0,0,0-.13,2.53c.06.77.48,2.26.43,2.28a14.83,14.83,0,0,0-.17,2.2c.1.58.59,2,.59,2.07s-.08,1.08-.09,1.33c0,.8.32,1.58.39,2.39a3.71,3.71,0,0,1-.43,1.21,26.48,26.48,0,0,1-2.72.52C100.18,285.16,93.68,257.48,93.68,257.48Z" style="fill:#455a64"></path><g style="opacity:0.30000000000000004"><path d="M93.68,257.48l1.56-.57c.07,0,1.35.44,1.44.49s1.24,0,1.32,0a15.25,15.25,0,0,1,1,1.41,11.66,11.66,0,0,1,1.42,1.49c.07.16.57,2.12.57,2.12s.87,1.77.89,1.84.14,2.8.1,3c0,0,.57,3.19.59,3.35a19.39,19.39,0,0,0-.13,2.53c.06.77.48,2.26.43,2.28a14.83,14.83,0,0,0-.17,2.2c.1.58.59,2,.59,2.07s-.08,1.08-.09,1.33c0,.8.32,1.58.39,2.39a3.71,3.71,0,0,1-.43,1.21,26.48,26.48,0,0,1-2.72.52C100.18,285.16,93.68,257.48,93.68,257.48Z"></path></g><path d="M93.17,257.89c0-.07-.11-.16-.17-.25a2.59,2.59,0,0,0-.19-.23.64.64,0,0,0-.11-.09.44.44,0,0,0,0,.14,2.63,2.63,0,0,0,.16.26,2.71,2.71,0,0,0,.17.25s0,0,.09,0A.06.06,0,0,0,93.17,257.89Z" style="fill:#e0e0e0"></path><path d="M94.46,257.58c0-.08,0-.19,0-.3s0-.22.06-.29a.87.87,0,0,1,.06-.13.29.29,0,0,1,0,.14,1.58,1.58,0,0,1,0,.3c0,.11,0,.21,0,.29s0,.07-.08.06S94.46,257.62,94.46,257.58Z" style="fill:#e0e0e0"></path><path d="M98.43,261.89c.08-.06.18-.15.29-.22a2,2,0,0,1,.31-.2.52.52,0,0,1,.16-.06.81.81,0,0,1-.09.15l-.28.24c-.1.09-.21.16-.29.22s-.07.05-.12,0A.08.08,0,0,1,98.43,261.89Z" style="fill:#e0e0e0"></path><path d="M96.51,258.71a3.53,3.53,0,0,1,.17-.33,2.84,2.84,0,0,1,.18-.31A.74.74,0,0,1,97,258a1,1,0,0,1,0,.17c0,.1-.09.22-.14.34s-.12.24-.17.32,0,.07-.11,0A.08.08,0,0,1,96.51,258.71Z" style="fill:#e0e0e0"></path><path d="M99.87,265.94l.36-.09a1.67,1.67,0,0,1,.35-.07.54.54,0,0,1,.18,0,.62.62,0,0,1-.15.1l-.34.12-.35.09s-.08,0-.1-.06S99.82,266,99.87,265.94Z" style="fill:#e0e0e0"></path><path d="M100.61,271.54l.36-.05a2.38,2.38,0,0,1,.37,0,.63.63,0,0,1,.17,0,.65.65,0,0,1-.16.07,2.88,2.88,0,0,1-.36.07l-.36,0s-.08,0-.09-.08A.07.07,0,0,1,100.61,271.54Z" style="fill:#e0e0e0"></path><path d="M101.32,276.47h.36l.37,0a.64.64,0,0,1,.16.06.47.47,0,0,1-.17.05c-.1,0-.23,0-.36,0l-.37,0s-.08,0-.08-.09S101.26,276.47,101.32,276.47Z" style="fill:#e0e0e0"></path><path d="M101.69,280.55l.34,0a1.61,1.61,0,0,1,.33,0,.49.49,0,0,1,.15.06l-.15,0h-.67s-.08,0-.07-.09S101.64,280.56,101.69,280.55Z" style="fill:#e0e0e0"></path><path d="M102.24,284.41l.26.1.24.13a.49.49,0,0,1,.1.09h-.13l-.26-.09-.25-.11s-.06,0,0-.08A.05.05,0,0,1,102.24,284.41Z" style="fill:#e0e0e0"></path><path d="M91.33,263.56a2.88,2.88,0,0,0-.36-.07,2.76,2.76,0,0,0-.37,0,.47.47,0,0,0-.17,0,.51.51,0,0,0,.15.08,2.63,2.63,0,0,0,.36.1l.36.06s.08,0,.09-.07A.07.07,0,0,0,91.33,263.56Z" style="fill:#e0e0e0"></path><path d="M91.86,259.83l-.29-.21-.31-.2a.67.67,0,0,0-.17-.05.5.5,0,0,0,.1.14,2.32,2.32,0,0,0,.28.24l.3.22s.06,0,.11,0S91.9,259.87,91.86,259.83Z" style="fill:#e0e0e0"></path><path d="M92,267.84l-.36.07c-.13,0-.26.07-.35.11a.7.7,0,0,0-.15.09.68.68,0,0,0,.17,0,2.71,2.71,0,0,0,.37-.05l.35-.08s.08,0,.06-.1A.07.07,0,0,0,92,267.84Z" style="fill:#e0e0e0"></path><path d="M93.94,273.22l-.35.13-.33.15-.13.11a.39.39,0,0,0,.17,0,2,2,0,0,0,.35-.11l.35-.13s.07,0,0-.11A.07.07,0,0,0,93.94,273.22Z" style="fill:#e0e0e0"></path><path d="M95.58,277.91l-.32.17a2.08,2.08,0,0,0-.31.21.48.48,0,0,0-.12.13.54.54,0,0,0,.18,0,2.92,2.92,0,0,0,.33-.15l.32-.18s.06,0,0-.11A.06.06,0,0,0,95.58,277.91Z" style="fill:#e0e0e0"></path><path d="M97,281.78l-.29.16c-.1.07-.21.13-.28.19a.66.66,0,0,0-.11.12.56.56,0,0,0,.16,0c.09,0,.2-.09.31-.14l.29-.16a.07.07,0,0,0,0-.11S97.09,281.76,97,281.78Z" style="fill:#e0e0e0"></path><path d="M98.23,285.29l-.18.21-.16.22a.44.44,0,0,0,0,.13.41.41,0,0,0,.12-.07c.06,0,.12-.13.19-.2a2.62,2.62,0,0,0,.17-.21s0-.05,0-.09A.05.05,0,0,0,98.23,285.29Z" style="fill:#e0e0e0"></path></g><path d="M93.63,257.49a5.15,5.15,0,0,1-.71.26.68.68,0,0,0-.36.4c-.27.5-.64.89-.94,1.36a2.46,2.46,0,0,0-.31,1.44,9,9,0,0,1-.1,1.36,4.42,4.42,0,0,0-.16,1.61c.11.45.24.9.35,1.35a11.16,11.16,0,0,1,.2,1.29,6.82,6.82,0,0,0,.33,2c.22.56.45,1.11.68,1.66a8.91,8.91,0,0,1,.4,1.13l.45,1.55a10.14,10.14,0,0,0,.7,1.75c.22.43.48.95.63,1.34.28.76.34,1.62.69,2.35a11.65,11.65,0,0,1,.86,1.64c.06.2.13.52.2.85a9.71,9.71,0,0,0,.79,2.33l0,0c.24.53.33,1.14.52,1.71,0,.14.62,1.49.87,1.35.5-.28,1.62-1.07,1.62-1.07Z" style="fill:#455a64"></path><g style="opacity:0.2"><path d="M93.63,257.49a5.15,5.15,0,0,1-.71.26.68.68,0,0,0-.36.4c-.27.5-.64.89-.94,1.36a2.46,2.46,0,0,0-.31,1.44,9,9,0,0,1-.1,1.36,4.42,4.42,0,0,0-.16,1.61c.11.45.24.9.35,1.35a11.16,11.16,0,0,1,.2,1.29,6.82,6.82,0,0,0,.33,2c.22.56.45,1.11.68,1.66a8.91,8.91,0,0,1,.4,1.13l.45,1.55a10.14,10.14,0,0,0,.7,1.75c.22.43.48.95.63,1.34.28.76.34,1.62.69,2.35a11.65,11.65,0,0,1,.86,1.64c.06.2.13.52.2.85a9.71,9.71,0,0,0,.79,2.33l0,0c.24.53.33,1.14.52,1.71,0,.14.62,1.49.87,1.35.5-.28,1.62-1.07,1.62-1.07Z"></path></g><path d="M100.36,285.15a1.92,1.92,0,0,1-.27.21l-.79.56-.28.18-.15.1c-.06,0-.09.08-.21.07a.67.67,0,0,1-.3-.3,2.36,2.36,0,0,1-.22-.38,4.76,4.76,0,0,1-.39-.88c-.1-.33-.18-.68-.29-1s-.3-.7-.45-1.08a10.26,10.26,0,0,1-.42-1.22c-.12-.44-.21-.88-.32-1.33a4.74,4.74,0,0,0-.64-1.27,4.76,4.76,0,0,1-.57-1.44,7.92,7.92,0,0,0-.44-1.51c-.23-.49-.45-1-.7-1.48a8.87,8.87,0,0,1-.6-1.61c-.16-.55-.3-1.1-.48-1.62s-.37-1-.58-1.54c-.1-.25-.21-.5-.31-.74a5.24,5.24,0,0,1-.26-.76,10.43,10.43,0,0,1-.18-1.53,18.82,18.82,0,0,0-.57-2.75,4.08,4.08,0,0,1,.16-1.29,9.8,9.8,0,0,0,.13-1.16c0-.38,0-.73,0-1.08a1.87,1.87,0,0,1,.37-.9,14.43,14.43,0,0,0,.88-1.25.75.75,0,0,1,.39-.41l.4-.11a1.55,1.55,0,0,0,.31-.11s-.09.07-.3.15l-.39.13a.67.67,0,0,0-.34.39,12.46,12.46,0,0,1-.86,1.27,1.76,1.76,0,0,0-.33.86c0,.32,0,.68,0,1.06a8.64,8.64,0,0,1-.13,1.19,4.27,4.27,0,0,0-.14,1.23,17.64,17.64,0,0,1,.58,2.76,10.79,10.79,0,0,0,.19,1.5,4,4,0,0,0,.26.73l.3.74c.22.5.4,1,.59,1.55s.32,1.08.49,1.63a19.05,19.05,0,0,0,1.29,3.08,8.91,8.91,0,0,1,.44,1.54,4.37,4.37,0,0,0,.54,1.38,5.1,5.1,0,0,1,.66,1.32c.11.46.19.91.3,1.34a10.55,10.55,0,0,0,.4,1.2,10,10,0,0,1,.45,1.09c.11.37.18.72.28,1a4.28,4.28,0,0,0,.36.87,2.56,2.56,0,0,0,.2.37.83.83,0,0,0,.25.27s.08,0,.13-.06L99,286l.29-.18.81-.52Z" style="fill:#263238"></path><path d="M100.06,284.19s-1.4-5.37-3-12-2.87-12.07-2.81-12.09,1.4,5.38,3,12.05S100.12,284.18,100.06,284.19Z" style="fill:#263238"></path><path d="M93.63,257.5c.48,0,.81-.19,1.24.09a14.89,14.89,0,0,0,1.47.81,2.07,2.07,0,0,1,.93,1.12,10.59,10.59,0,0,0,.71,1.16,9,9,0,0,1,.8,1.38,8.41,8.41,0,0,1,.39,1.35,8.87,8.87,0,0,0,.41,1.23,7.65,7.65,0,0,1,.6,1.92q.09.88.15,1.77a9.3,9.3,0,0,0,.16,1.18c.09.46.2,1.07.31,1.59A9.14,9.14,0,0,1,101,273c0,.48,0,1.07,0,1.47.1.85.43,1.68.45,2.53a11.23,11.23,0,0,0,0,1.74c0,.2.12.51.21.84A10,10,0,0,1,102,282V282a20.06,20.06,0,0,0,.36,2c0,.14.06,1.34-.2,1.33a18.21,18.21,0,0,1-1.88-.27Z" style="fill:#455a64"></path><path d="M100.43,285.15a1.19,1.19,0,0,1,.33,0c.22,0,.54.08.95.12.11,0,.21,0,.33,0h.17a.26.26,0,0,0,.07-.11,2.86,2.86,0,0,0,.08-.8,14.87,14.87,0,0,0-.35-2c-.06-.38,0-.77-.09-1.17a9.45,9.45,0,0,0-.21-1.24l-.33-1.32a6.48,6.48,0,0,1,0-1.46,5.4,5.4,0,0,0-.18-1.48,8.72,8.72,0,0,1-.27-1.57c0-.54,0-1.1-.06-1.64a9.52,9.52,0,0,0-.2-1.66c-.1-.56-.24-1.11-.31-1.66,0-.28-.07-.56-.11-.83s0-.54-.07-.81l-.07-.79a3.66,3.66,0,0,0-.11-.76,11.4,11.4,0,0,0-.51-1.42,9.19,9.19,0,0,1-.44-1.38,5.24,5.24,0,0,0-.39-1.29,7.7,7.7,0,0,0-.62-1.09c-.23-.33-.45-.66-.64-1-.47-1.55-1.89-1.73-2.53-2.27a1.13,1.13,0,0,0-.89-.15l-.25,0h-.09l.33-.06a2.18,2.18,0,0,1,.41,0,.92.92,0,0,1,.54.17c.35.22.8.45,1.33.72a1.7,1.7,0,0,1,.76.61c.19.29.33.61.52.93a10.1,10.1,0,0,0,.64,1,9.82,9.82,0,0,1,.65,1.11,6.25,6.25,0,0,1,.41,1.31,8.57,8.57,0,0,0,.43,1.36,10.68,10.68,0,0,1,.53,1.44,4.19,4.19,0,0,1,.12.79c0,.26,0,.53.07.8a24.18,24.18,0,0,0,.49,3.27,10.84,10.84,0,0,1,.21,1.69c0,.57,0,1.1.05,1.63a8,8,0,0,0,.26,1.55,5.64,5.64,0,0,1,.18,1.52,7.51,7.51,0,0,0,0,1.42q.17.69.33,1.32a9.76,9.76,0,0,1,.19,1.27c.05.41,0,.8.08,1.16a13.51,13.51,0,0,1,.32,2,2.46,2.46,0,0,1-.1.83.23.23,0,0,1-.15.17H102l-.33,0-1-.16Z" style="fill:#263238"></path><g id="freepik--2--inject-281"><path d="M109.78,243.14c-.07-.13-.42-.6-.54-.76a6,6,0,0,0-.65-.83,4.45,4.45,0,0,0,.51,1c.11.17.38.63.47.76s.07.1.18,0A.12.12,0,0,0,109.78,243.14Z" style="fill:#e0e0e0"></path><path d="M104.91,253.69c-.15,0-.73-.07-.94-.09a8.15,8.15,0,0,0-1,0,5,5,0,0,0,1.07.23c.2,0,.73.13.88.14s.13,0,.14-.11A.12.12,0,0,0,104.91,253.69Z" style="fill:#e0e0e0"></path><path d="M105.27,263.33l-.93.12a7.47,7.47,0,0,0-1,.19,4.79,4.79,0,0,0,1.1,0l.88-.05s.13,0,.12-.15S105.36,263.33,105.27,263.33Z" style="fill:#e0e0e0"></path><path d="M106.16,270.67l-.92.12a9.21,9.21,0,0,0-1,.19,4.11,4.11,0,0,0,1.1,0c.2,0,.73,0,.89-.05s.12,0,.11-.15A.13.13,0,0,0,106.16,270.67Z" style="fill:#e0e0e0"></path><path d="M106.79,277.28c-.15,0-.72.09-.93.12a6.21,6.21,0,0,0-1,.19,4.72,4.72,0,0,0,1.09,0l.89-.06s.13,0,.11-.14S106.87,277.28,106.79,277.28Z" style="fill:#e0e0e0"></path><path d="M107.13,283l-.92.18a7.55,7.55,0,0,0-1,.27,4.53,4.53,0,0,0,1.09-.08l.88-.12a.11.11,0,0,0,.1-.15A.11.11,0,0,0,107.13,283Z" style="fill:#e0e0e0"></path><path d="M106.59,247.34c-.14-.07-.69-.24-.88-.31a8.3,8.3,0,0,0-1-.29,4.59,4.59,0,0,0,1,.49c.19.07.67.29.82.34s.12,0,.16-.08A.1.1,0,0,0,106.59,247.34Z" style="fill:#e0e0e0"></path><path d="M114.23,242.32c0-.16-.07-.73-.09-.93a6.78,6.78,0,0,0-.16-1,4,4,0,0,0,0,1.09c0,.21,0,.74,0,.89s0,.12.14.12A.12.12,0,0,0,114.23,242.32Z" style="fill:#e0e0e0"></path><path d="M116.28,241.81a19,19,0,0,1-2.32-.53c-.11.05-2.3.91-2.45,1s-2.25.17-2.36.27a19.73,19.73,0,0,0-1.42,2.31,17.22,17.22,0,0,0-2.15,2.52c-.08.26-.46,3.33-.46,3.33s-1.08,2.85-1.1,3,.5,4.29.62,4.58c0,0-.17,5-.17,5.21a25,25,0,0,1,.91,3.84c.1,1.18-.26,3.53-.16,3.55a19.81,19.81,0,0,1,.89,3.32c0,.91-.53,3.15-.51,3.27s.43,1.62.51,2c.25,1.21-.14,2.47-.06,3.71a5.74,5.74,0,0,0,1.1,1.77,49.59,49.59,0,0,0,5,.33C112.64,285.23,116.28,241.81,116.28,241.81Z" style="fill:#455a64"></path><path d="M124.48,255.78c.15,0,.73.08.93.11a7.66,7.66,0,0,1,1,.18,4.29,4.29,0,0,1-1.1,0c-.2,0-.74,0-.89-.05a.12.12,0,0,1-.11-.14C124.36,255.82,124.4,255.77,124.48,255.78Z" style="fill:#e0e0e0"></path><path d="M122.11,265.13c.15,0,.69.24.89.31a9.16,9.16,0,0,1,1,.4,4.26,4.26,0,0,1-1.07-.23c-.2-.06-.72-.19-.86-.24a.12.12,0,0,1-.08-.17A.11.11,0,0,1,122.11,265.13Z" style="fill:#e0e0e0"></path><path d="M120.05,272.15l.88.31a7.4,7.4,0,0,1,1,.41,5,5,0,0,1-1.07-.23l-.86-.24a.13.13,0,0,1,.08-.25Z" style="fill:#e0e0e0"></path><path d="M118.32,278.5c.14,0,.69.25.88.32a7.64,7.64,0,0,1,1,.4,4.26,4.26,0,0,1-1.07-.23l-.86-.24a.13.13,0,0,1-.08-.17A.14.14,0,0,1,118.32,278.5Z" style="fill:#e0e0e0"></path><path d="M116.93,284.09c.15.05.67.3.86.38a7.33,7.33,0,0,1,.94.47,4.64,4.64,0,0,1-1-.31l-.84-.3s-.11-.05-.07-.17A.13.13,0,0,1,116.93,284.09Z" style="fill:#e0e0e0"></path><path d="M124.38,249.23c.15,0,.73-.09.93-.11a7.77,7.77,0,0,1,1-.07,4.47,4.47,0,0,1-1.06.27l-.88.16s-.12,0-.14-.11A.12.12,0,0,1,124.38,249.23Z" style="fill:#e0e0e0"></path><path d="M122.36,244.1c.1-.11.54-.5.69-.64a7.49,7.49,0,0,1,.81-.67,4.94,4.94,0,0,1-.71.84l-.61.65s-.09.08-.18,0A.11.11,0,0,1,122.36,244.1Z" style="fill:#e0e0e0"></path><path d="M118.65,242.66c0-.15.23-.7.29-.89a7,7,0,0,1,.38-1,4.2,4.2,0,0,1-.2,1.07c-.05.2-.17.72-.22.87s0,.11-.16.08A.12.12,0,0,1,118.65,242.66Z" style="fill:#e0e0e0"></path><path d="M116.37,241.81l2.55,0c.08.07,1.71,1.33,1.82,1.44s1.81.61,1.88.72a21.14,21.14,0,0,1,.72,2.54,18,18,0,0,1,1.28,2.89c0,.26-.27,3.34-.27,3.34s.33,3,.32,3.12-1.23,4.1-1.39,4.36c0,0-.82,4.89-.88,5.14a29.2,29.2,0,0,0-1.49,3.58c-.31,1.14-.47,3.51-.55,3.51a22.91,22.91,0,0,0-1.38,3.08c-.15.9-.17,3.19-.21,3.3s-.67,1.51-.81,1.87a31.14,31.14,0,0,0-.67,3.64,6.11,6.11,0,0,1-1.24,1.53,34.84,34.84,0,0,1-4.2-.66C111.48,285.09,116.37,241.81,116.37,241.81Z" style="fill:#455a64"></path><g style="opacity:0.30000000000000004"><path d="M116.37,241.81l2.55,0c.08.07,1.71,1.33,1.82,1.44s1.81.61,1.88.72a21.14,21.14,0,0,1,.72,2.54,18,18,0,0,1,1.28,2.89c0,.26-.27,3.34-.27,3.34s.33,3,.32,3.12-1.23,4.1-1.39,4.36c0,0-.82,4.89-.88,5.14a29.2,29.2,0,0,0-1.49,3.58c-.31,1.14-.47,3.51-.55,3.51a22.91,22.91,0,0,0-1.38,3.08c-.15.9-.17,3.19-.21,3.3s-.67,1.51-.81,1.87a31.14,31.14,0,0,0-.67,3.64,6.11,6.11,0,0,1-1.24,1.53,34.84,34.84,0,0,1-4.2-.66C111.48,285.09,116.37,241.81,116.37,241.81Z"></path></g><path d="M115.42,242.14c0-.13-.07-.29-.12-.45a2.66,2.66,0,0,0-.15-.43.64.64,0,0,0-.12-.19.88.88,0,0,0,0,.22,2.23,2.23,0,0,0,.08.46c0,.16.08.32.12.44s0,.09.13.07A.1.1,0,0,0,115.42,242.14Z" style="fill:#e0e0e0"></path><path d="M117.45,242.35c0-.11.13-.26.21-.41a3.33,3.33,0,0,1,.24-.39.77.77,0,0,1,.15-.16.58.58,0,0,1,0,.22,3.46,3.46,0,0,1-.17.43l-.21.41a.11.11,0,0,1-.15,0A.1.1,0,0,1,117.45,242.35Z" style="fill:#e0e0e0"></path><path d="M121,250.62c.14-.06.34-.12.53-.18a5.31,5.31,0,0,1,.55-.13.8.8,0,0,1,.27,0,1.13,1.13,0,0,1-.22.16,5.58,5.58,0,0,1-.52.21l-.53.17s-.12,0-.16-.09A.11.11,0,0,1,121,250.62Z" style="fill:#e0e0e0"></path><path d="M119.82,245l.4-.39a5.13,5.13,0,0,1,.44-.35.68.68,0,0,1,.24-.11.76.76,0,0,1-.12.23,4.51,4.51,0,0,1-.38.42,4.74,4.74,0,0,1-.41.39s-.09.07-.18,0A.12.12,0,0,1,119.82,245Z" style="fill:#e0e0e0"></path><path d="M120.94,257.21c.15,0,.36,0,.56,0a3.81,3.81,0,0,1,.55.08.87.87,0,0,1,.25.11,1,1,0,0,1-.26.07h-.56l-.56-.05s-.12,0-.11-.14S120.86,257.21,120.94,257.21Z" style="fill:#e0e0e0"></path><path d="M119.12,265.65c.15,0,.35.07.55.13a3,3,0,0,1,.53.17.93.93,0,0,1,.23.14,1.13,1.13,0,0,1-.27,0,4.79,4.79,0,0,1-.55-.09l-.55-.13s-.11,0-.09-.16A.12.12,0,0,1,119.12,265.65Z" style="fill:#e0e0e0"></path><path d="M117.6,273.13c.15.05.34.12.52.2s.38.17.51.25a.81.81,0,0,1,.2.17.83.83,0,0,1-.27,0,4,4,0,0,1-.53-.17c-.19-.06-.38-.14-.52-.2a.12.12,0,0,1-.07-.17A.11.11,0,0,1,117.6,273.13Z" style="fill:#e0e0e0"></path><path d="M116,279.22l.48.19a4,4,0,0,1,.46.22.78.78,0,0,1,.18.16.65.65,0,0,1-.24,0,4.39,4.39,0,0,1-.49-.15c-.18-.06-.35-.14-.48-.19s-.1-.05-.06-.16A.11.11,0,0,1,116,279.22Z" style="fill:#e0e0e0"></path><path d="M114.85,285.06l.31.29a3.71,3.71,0,0,1,.28.3.9.9,0,0,1,.1.18.71.71,0,0,1-.19-.08,3.06,3.06,0,0,1-.32-.26c-.12-.1-.23-.21-.31-.29s-.06-.06,0-.13A.08.08,0,0,1,114.85,285.06Z" style="fill:#e0e0e0"></path><path d="M109.84,249.36l-.48-.28a4.51,4.51,0,0,0-.51-.24,1.14,1.14,0,0,0-.26-.06,1.06,1.06,0,0,0,.18.21,4,4,0,0,0,.46.31,5.33,5.33,0,0,0,.49.28.11.11,0,0,0,.17-.05A.12.12,0,0,0,109.84,249.36Z" style="fill:#e0e0e0"></path><path d="M112.54,244.27c-.08-.13-.2-.3-.32-.47a4.51,4.51,0,0,0-.35-.44.91.91,0,0,0-.21-.16.93.93,0,0,0,.07.26,4.48,4.48,0,0,0,.28.49c.11.17.23.34.32.46s.07.1.18,0A.12.12,0,0,0,112.54,244.27Z" style="fill:#e0e0e0"></path><path d="M108.64,255.9l-.56-.08c-.2,0-.4,0-.56,0a.82.82,0,0,0-.26.06.87.87,0,0,0,.24.12,3.56,3.56,0,0,0,.55.11c.2,0,.4.06.55.08s.12,0,.14-.12A.11.11,0,0,0,108.64,255.9Z" style="fill:#e0e0e0"></path><path d="M108.63,264.64h-.56a4.31,4.31,0,0,0-.56.05,1.07,1.07,0,0,0-.25.1,1.08,1.08,0,0,0,.26.08,3.15,3.15,0,0,0,.56,0h.55c.05,0,.13,0,.13-.14A.13.13,0,0,0,108.63,264.64Z" style="fill:#e0e0e0"></path><path d="M108.58,272.25l-.55.09a5,5,0,0,0-.55.13,1.48,1.48,0,0,0-.24.13,1.06,1.06,0,0,0,.27,0,4.3,4.3,0,0,0,.56-.06c.2,0,.4-.06.55-.09a.11.11,0,0,0,.1-.15A.11.11,0,0,0,108.58,272.25Z" style="fill:#e0e0e0"></path><path d="M108.7,278.6a3.66,3.66,0,0,0-.5.08,3.69,3.69,0,0,0-.5.12.74.74,0,0,0-.22.12.71.71,0,0,0,.24,0,3.36,3.36,0,0,0,.51,0l.51-.08a.1.1,0,0,0,.09-.14A.1.1,0,0,0,108.7,278.6Z" style="fill:#e0e0e0"></path><path d="M108.6,284.27a3.65,3.65,0,0,0-.36.21,2.65,2.65,0,0,0-.35.24.49.49,0,0,0-.13.15.65.65,0,0,0,.2,0,2.18,2.18,0,0,0,.37-.19,3.47,3.47,0,0,0,.36-.21s.08-.05,0-.13A.08.08,0,0,0,108.6,284.27Z" style="fill:#e0e0e0"></path></g><path d="M116.29,241.79a7.21,7.21,0,0,1-1.15,0,1.15,1.15,0,0,0-.74.39c-.63.58-1.37,1-2.05,1.49a3.64,3.64,0,0,0-1.18,1.91,15.45,15.45,0,0,1-.85,1.91,7,7,0,0,0-1.07,2.25c-.06.7-.1,1.41-.19,2.12a14.41,14.41,0,0,1-.37,2,10.3,10.3,0,0,0-.53,3c0,.91.07,1.82.12,2.74a14,14,0,0,1,0,1.83c0,.71-.1,1.66-.15,2.47a14,14,0,0,0,.11,2.89,21.18,21.18,0,0,1,.21,2.25c0,1.24-.34,2.52-.21,3.76a18.68,18.68,0,0,1,.39,2.8c0,.32-.08.81-.15,1.32a14.86,14.86,0,0,0-.06,3.77v.07a25.49,25.49,0,0,1-.13,2.74c0,.22.13,2.46.56,2.39.87-.15,2.88-.71,2.88-.71Z" style="fill:#455a64"></path><g style="opacity:0.2"><path d="M116.29,241.79a7.21,7.21,0,0,1-1.15,0,1.15,1.15,0,0,0-.74.39c-.63.58-1.37,1-2.05,1.49a3.64,3.64,0,0,0-1.18,1.91,15.45,15.45,0,0,1-.85,1.91,7,7,0,0,0-1.07,2.25c-.06.7-.1,1.41-.19,2.12a14.41,14.41,0,0,1-.37,2,10.3,10.3,0,0,0-.53,3c0,.91.07,1.82.12,2.74a14,14,0,0,1,0,1.83c0,.71-.1,1.66-.15,2.47a14,14,0,0,0,.11,2.89,21.18,21.18,0,0,1,.21,2.25c0,1.24-.34,2.52-.21,3.76a18.68,18.68,0,0,1,.39,2.8c0,.32-.08.81-.15,1.32a14.86,14.86,0,0,0-.06,3.77v.07a25.49,25.49,0,0,1-.13,2.74c0,.22.13,2.46.56,2.39.87-.15,2.88-.71,2.88-.71Z"></path></g><path d="M111.74,285.16l-.12,0-.37.11-1.43.39-.5.11-.27.06-.14,0s-.13,0-.17,0a1,1,0,0,1-.28-.58c0-.21-.09-.43-.12-.65a7.8,7.8,0,0,1-.09-1.48c0-.52.09-1.06.12-1.63s-.08-1.16-.1-1.8a14.51,14.51,0,0,1,0-2c0-.33.07-.68.11-1l.12-1.05a7.46,7.46,0,0,0-.27-2.17,7.5,7.5,0,0,1-.14-1.16,8,8,0,0,1,.06-1.2,14.79,14.79,0,0,0,.16-2.41c0-.82-.17-1.65-.27-2.51a15.13,15.13,0,0,1,0-2.61c0-.88.11-1.74.16-2.6s0-1.68-.06-2.51q0-.63-.06-1.23a7.09,7.09,0,0,1,0-1.22,16,16,0,0,1,.52-2.29,15.62,15.62,0,0,0,.39-2.18c.07-.72.11-1.4.21-2.09a6.37,6.37,0,0,1,.88-1.77,14.9,14.9,0,0,0,.79-1.61c.23-.53.38-1.06.62-1.53a2.92,2.92,0,0,1,1-1.1,20.42,20.42,0,0,0,1.91-1.36,1.64,1.64,0,0,1,.37-.28,1,1,0,0,1,.39-.1c.26,0,.46,0,.63,0a1.38,1.38,0,0,0,.51,0s-.17.06-.51.05h-.62a1,1,0,0,0-.37.1,2.15,2.15,0,0,0-.35.28,17.61,17.61,0,0,1-1.89,1.39,2.78,2.78,0,0,0-.93,1.07c-.23.46-.38,1-.61,1.52a12.89,12.89,0,0,1-.79,1.64,6.57,6.57,0,0,0-.85,1.72,27.5,27.5,0,0,1-.58,4.28,15.56,15.56,0,0,0-.51,2.27,6.76,6.76,0,0,0,0,1.19c0,.41,0,.82,0,1.23,0,.82.11,1.67.07,2.53s-.1,1.72-.16,2.6a15.84,15.84,0,0,0,0,2.58c.1.84.23,1.69.27,2.52a14.92,14.92,0,0,1-.17,2.44,6.8,6.8,0,0,0,.08,2.3,8,8,0,0,1,.26,2.22c0,.36-.09.72-.13,1.07s-.09.68-.12,1a15.85,15.85,0,0,0,0,1.94,16.06,16.06,0,0,1,.08,1.81c0,.58-.1,1.13-.13,1.64a7.58,7.58,0,0,0,.07,1.45c0,.23.07.44.11.65a1.13,1.13,0,0,0,.23.52s.15,0,.24,0l.27-.05.5-.11,1.44-.35.37-.09Z" style="fill:#263238"></path><path d="M111.81,283.63s.8-8.47,1.92-18.91,2.06-18.9,2.11-18.9-.8,8.48-1.91,18.92S111.87,283.64,111.81,283.63Z" style="fill:#263238"></path><path d="M116.29,241.81c.7.21,1.26.14,1.73.76a22.45,22.45,0,0,0,1.71,1.93,3.2,3.2,0,0,1,.76,2.1,15.73,15.73,0,0,0,.43,2,13.18,13.18,0,0,1,.45,2.4,11.84,11.84,0,0,1-.14,2.14,14.85,14.85,0,0,0,0,2,11.27,11.27,0,0,1-.11,3.07c-.23.88-.46,1.76-.7,2.63a13.91,13.91,0,0,0-.38,1.79c-.11.71-.25,1.65-.37,2.44a15.05,15.05,0,0,1-.72,2.81,21.12,21.12,0,0,0-.68,2.16c-.3,1.26-.26,2.63-.67,3.86a18.72,18.72,0,0,0-.89,2.51c0,.32-.1.81-.13,1.32a15.55,15.55,0,0,1-.73,3.7l0,.06a27.61,27.61,0,0,0-.52,3.13c0,.21-.61,1.95-1,1.8a27.21,27.21,0,0,1-2.57-1.35Z" style="fill:#455a64"></path><path d="M111.85,285.19l.11.06.34.18c.3.16.73.4,1.31.68l.45.22.24.09c.06,0,.14-.05.19-.12a4.49,4.49,0,0,0,.54-1.12,6.07,6.07,0,0,0,.29-1.41c.06-.51.11-1.06.22-1.62s.34-1.13.48-1.74a15.62,15.62,0,0,0,.35-1.9c.07-.67.13-1.37.2-2.08a11.66,11.66,0,0,1,.74-2.1c.6-1.39.46-3,.9-4.64.22-.8.53-1.59.79-2.38a15,15,0,0,0,.56-2.51c.13-.86.27-1.72.39-2.56s.4-1.65.6-2.45c.11-.39.21-.79.32-1.18a6,6,0,0,0,.23-1.16,17.79,17.79,0,0,0,0-2.31,14.79,14.79,0,0,1,.08-2.22,9,9,0,0,0,.1-2.06,13.92,13.92,0,0,0-.34-1.9,15.66,15.66,0,0,1-.41-1.75c-.11-.57-.14-1.12-.26-1.61a2.46,2.46,0,0,0-.71-1.21,20.18,20.18,0,0,1-1.53-1.76,1.8,1.8,0,0,0-1.24-.68l-.37-.1-.12,0,.13,0,.37.08a3.14,3.14,0,0,1,.61.15,1.44,1.44,0,0,1,.68.52,20.94,20.94,0,0,0,1.55,1.73,2.68,2.68,0,0,1,.76,1.26c.13.51.16,1.05.27,1.61s.25,1.14.42,1.74a14.06,14.06,0,0,1,.36,1.93,8.66,8.66,0,0,1-.09,2.09,14.52,14.52,0,0,0-.08,2.2,15,15,0,0,1,0,2.33,6,6,0,0,1-.23,1.19c-.1.39-.21.79-.31,1.19-.21.8-.45,1.6-.6,2.43s-.26,1.69-.39,2.55a15.32,15.32,0,0,1-.56,2.54c-.27.81-.58,1.58-.8,2.38-.43,1.56-.3,3.22-.91,4.65a10.44,10.44,0,0,0-.74,2.06q-.1,1.07-.21,2.07a14.19,14.19,0,0,1-.37,1.92c-.14.61-.38,1.17-.48,1.72a21,21,0,0,1-.56,3,4.24,4.24,0,0,1-.56,1.15c-.07.07-.15.17-.28.16l-.26-.11-.46-.23c-.57-.29-1-.54-1.29-.71l-.33-.2Z" style="fill:#263238"></path><polygon points="116.14 310.17 98.02 310.17 90.98 283.06 122.63 283.06 116.14 310.17" style="fill:#37474F"></polygon><g style="opacity:0.30000000000000004"><polygon points="90.98 283.06 98.02 310.17 107.49 310.17 106.52 283.12 90.98 283.06"></polygon></g><path d="M107.66,310.08c-.06,0-.36-6-.67-13.47s-.53-13.49-.47-13.49.35,6,.67,13.48S107.72,310.08,107.66,310.08Z" style="fill:#263238"></path><rect x="192.22" y="307.47" width="57.71" height="2.69" style="fill:#e0e0e0"></rect><path d="M180.8,310.67h-14a7,7,0,0,1,7-7h0a7,7,0,0,1,7,7Z" style="fill:#e0e0e0"></path><rect x="241.74" y="232.24" width="87.97" height="68.1" rx="6.32" style="fill:#e0e0e0"></rect><rect x="274.11" y="279.77" width="23.21" height="31.1" style="fill:#e0e0e0"></rect><path d="M273.83,281.13c.14,0,.26,6.52.26,14.56s-.12,14.57-.26,14.57-.26-6.52-.26-14.57S273.68,281.13,273.83,281.13Z" style="fill:#263238"></path><path d="M297.59,282.14c.15,0,.26,6.64.26,14.82s-.11,14.82-.26,14.82-.26-6.63-.26-14.82S297.45,282.14,297.59,282.14Z" style="fill:#263238"></path><path d="M295.75,281.22c0,.15-4.94.26-11,.26s-11-.11-11-.26,4.93-.26,11-.26S295.75,281.08,295.75,281.22Z" style="fill:#263238"></path><path d="M290.3,263.09a4.58,4.58,0,1,1-4.58-4.58A4.59,4.59,0,0,1,290.3,263.09Z" style="fill:#fff"></path><rect x="77.24" y="320.6" width="250.11" height="149.64" style="fill:#ae7461"></rect><rect x="66.27" y="310.16" width="272.15" height="12.93" style="fill:#ae7461"></rect><path d="M338.49,323.09c0,.12-60.94.22-136.1.22s-136.12-.1-136.12-.22,60.93-.22,136.12-.22S338.49,323,338.49,323.09Z" style="fill:#6f4439"></path><path d="M327.35,343.1c0,.13-56,.22-125,.22s-125.06-.09-125.06-.22,56-.22,125.06-.22S327.35,343,327.35,343.1Z" style="fill:#6f4439"></path><path d="M327.35,361.85c0,.13-56,.23-125,.23s-125.06-.1-125.06-.23,56-.22,125.06-.22S327.35,361.73,327.35,361.85Z" style="fill:#6f4439"></path><path d="M327.35,380.61c0,.12-56,.22-125,.22s-125.06-.1-125.06-.22,56-.22,125.06-.22S327.35,380.48,327.35,380.61Z" style="fill:#6f4439"></path><path d="M327.35,399.36c0,.12-56,.22-125,.22s-125.06-.1-125.06-.22,56-.22,125.06-.22S327.35,399.24,327.35,399.36Z" style="fill:#6f4439"></path><path d="M327.35,418.11c0,.12-56,.22-125,.22s-125.06-.1-125.06-.22,56-.22,125.06-.22S327.35,418,327.35,418.11Z" style="fill:#6f4439"></path><path d="M327.35,436.86c0,.12-56,.22-125,.22s-125.06-.1-125.06-.22,56-.22,125.06-.22S327.35,436.74,327.35,436.86Z" style="fill:#6f4439"></path><path d="M327.35,454.36c0,.13-56,.22-125,.22s-125.06-.09-125.06-.22,56-.22,125.06-.22S327.35,454.24,327.35,454.36Z" style="fill:#6f4439"></path><g style="opacity:0.30000000000000004"><path d="M77.24,323.17s55.93,9,131.46,9,112.91-9.3,112.91-9.3Z"></path></g></g></svg>
